<svg width="346" height="121" viewBox="0 0 346 121" fill="none" xmlns="http://www.w3.org/2000/svg">
<path d="M159.542 0.349998C159.392 0.549999 156.842 0.950001 153.942 1.3C147.992 1.95 147.342 2.35 146.692 5.55C146.442 6.75 145.892 9.2 145.442 11C144.642 14.45 143.992 17.8 143.242 22.75C142.992 24.4 142.542 27.1 142.292 28.75C141.442 33.55 141.592 36.9 142.742 38.8C144.092 40.95 146.842 42.5 149.242 42.5C151.842 42.5 156.642 40.7 158.392 39.1C160.042 37.5 160.192 36 158.642 35.95C157.992 35.95 155.592 35.9 153.242 35.85L148.992 35.75L149.142 34.25C149.342 32.2 150.592 27.2 151.592 24.65C152.342 22.65 152.542 22.5 155.692 21.55C157.492 21 159.592 20.45 160.292 20.3C161.992 19.95 162.442 18.8 161.492 17C160.542 15.1 159.992 14.8 156.992 14.5L154.492 14.25L154.342 11.75C154.192 8.4 154.992 7.05 157.942 5.9C160.392 4.95 162.242 3.4 162.242 2.25C162.242 1.7 160.692 0 160.142 0C160.042 0 159.742 0.149998 159.542 0.349998Z" fill="black"/>
<path d="M342.742 0.450001C342.342 0.700001 340.192 1.05 337.992 1.2C335.792 1.4 333.292 1.8 332.442 2.05C330.742 2.55 331.042 1.85 328.692 12C328.392 13.25 327.942 15.15 327.692 16.25C327.442 17.35 326.992 19.95 326.692 22C326.392 24.05 325.942 27.1 325.692 28.75C325.442 30.4 325.092 32.65 324.942 33.8C324.292 38 328.342 42.5 332.692 42.5C335.592 42.5 340.242 40.6 342.192 38.65C344.642 36.2 343.892 35.7 337.742 35.9C334.592 36 332.742 35.85 332.492 35.5C331.942 34.65 333.742 27.7 335.542 23.7C336.092 22.45 336.692 22.05 339.192 21.35C340.892 20.9 342.642 20.5 343.142 20.5C343.642 20.5 344.292 20.25 344.642 19.9C345.292 19.25 345.442 17.05 344.842 16.15C344.292 15.3 341.942 14.5 339.992 14.5C339.042 14.5 338.142 14.25 337.992 13.95C337.792 13.65 337.792 12 337.992 10.25L338.292 7.1L340.642 6.25C344.142 4.95 345.242 4.15 345.242 2.8C345.242 0.250004 344.442 -0.499996 342.742 0.450001Z" fill="black"/>
<path d="M117.742 4.09998C117.192 4.99998 116.742 5.89998 116.742 6.04998C116.742 6.19999 116.192 9.54998 115.542 13.55C113.942 23.2 113.242 39.45 114.442 40.45C115.642 41.45 118.942 41.7 123.142 41C128.942 40.05 131.442 38.85 132.492 36.5C134.142 32.85 132.492 31.95 126.442 33.2C121.842 34.1 120.442 33.7 120.992 31.6C121.142 30.85 121.492 28.35 121.742 26C121.992 23.65 122.442 19.95 122.692 17.75C123.942 7.59999 123.942 6.39998 122.642 4.49998C120.992 2.04998 119.092 1.89998 117.742 4.09998Z" fill="black"/>
<path d="M247.142 3.5C243.892 5.25 241.042 9.9 238.792 17.05C238.042 19.4 238.092 26.3 238.892 28.5C240.692 33.6 243.992 36.5 247.992 36.5C249.292 36.5 250.742 36.25 251.292 35.95C252.942 35.1 255.592 31.9 256.892 29.25C259.992 23.05 260.492 21.05 260.492 14.25C260.492 9.1 260.342 8 259.492 6.5C257.492 3.05 250.942 1.45 247.142 3.5ZM254.292 8C255.042 8.45 255.242 9.1 255.242 11.25C255.242 12.75 255.042 14.45 254.792 15.1C254.542 15.75 254.092 17.15 253.742 18.25C251.992 24 248.592 29 246.442 29C244.592 29 243.992 27.7 244.142 23.8C244.392 16.35 248.992 7.85 252.892 7.55C253.142 7.5 253.742 7.75 254.292 8Z" fill="black"/>
<path d="M60.7422 3.79993C58.6922 4.14993 56.1922 4.69993 55.2422 4.94993C54.2922 5.19993 52.3922 5.69993 51.0422 6.09993C45.9422 7.44993 46.6422 10.0499 52.4922 11.3499C54.4922 11.7499 54.4922 11.7499 54.3922 13.9999C54.2922 15.2499 53.8922 18.8499 53.4422 21.9999C52.9422 25.6499 52.7422 30.3499 52.8422 34.9999C52.9922 41.9999 53.0422 42.2499 54.0922 42.3999C55.5422 42.5999 58.5422 39.8999 59.6922 37.2999C60.9422 34.5499 61.7422 27.7499 61.7422 19.6499V12.9999L63.4422 12.2999C64.3922 11.8999 66.4422 11.2999 68.0922 10.9999C71.5922 10.2499 72.2422 9.79993 72.2422 7.99993C72.2422 6.09993 70.5422 4.14993 68.3422 3.49993C66.0922 2.89993 65.5422 2.89993 60.7422 3.79993Z" fill="black"/>
<path d="M95.9922 3.3C93.9922 3.6 87.7922 4.95 86.2422 5.45C85.5422 5.7 84.0422 6.15 82.8422 6.45C80.8922 7 80.6922 7.2 80.8422 8.4C80.9922 9.9 82.4422 10.8 85.3422 11.25C87.6422 11.6 87.9922 12.5 87.2422 16.4C86.7422 19.15 86.1422 25.45 85.3922 35.05C85.0922 39.4 85.7922 42.5 87.1422 42.5C89.0422 42.5 91.2922 40.45 92.5922 37.6C93.8922 34.6 94.6922 27.65 94.7422 18.4C94.7422 13.45 94.9922 12.5 96.2422 12.5C96.7922 12.5 97.2922 12.3 97.4422 12.05C97.6422 11.8 98.6922 11.45 99.8922 11.25C104.192 10.6 105.242 10.05 105.242 8.5C105.242 6.65 104.442 4.85 103.242 4.1C102.192 3.45 98.1922 3 95.9922 3.3Z" fill="black"/>
<path d="M32.4922 5.84994C32.0922 6.24994 31.7422 6.69994 31.7422 6.89994C31.7422 7.09994 31.3922 9.84994 30.9422 12.9999C30.4922 16.1499 29.9422 21.4499 29.7422 24.7499C29.4922 28.0499 29.1422 32.2499 28.9422 34.0499C28.5922 37.3999 29.4422 40.1999 30.9422 40.7999C32.8922 41.5499 35.4422 39.0999 36.3422 35.6499C38.1422 28.6499 38.6922 24.8499 39.0422 16.7999L39.3922 9.24994L38.0922 7.69994C36.4422 5.74994 33.5422 4.74994 32.4922 5.84994Z" fill="black"/>
<path d="M200.392 6.60007C199.842 7.30007 199.442 8.85007 197.442 17.5001C196.742 20.6501 195.942 24.0501 195.742 25.0001C193.492 34.3501 193.142 40.1501 194.792 41.1501C197.242 42.7001 202.742 36.5001 202.742 32.2501C202.742 31.1501 202.892 29.0501 203.042 27.6001C203.492 23.8501 204.592 24.1501 206.692 28.5501C208.942 33.1001 210.192 33.9001 213.192 32.4001C214.492 31.7501 216.492 29.9501 218.292 27.8001C222.892 22.2501 222.792 22.3501 223.342 22.9001C223.642 23.2001 223.992 26.1001 224.092 29.3501C224.342 35.9001 224.842 37.5001 226.592 37.5001C227.442 37.5001 227.942 37.0001 228.542 35.6001C229.192 34.1001 229.292 31.8501 229.292 23.6501C229.242 18.0501 229.042 13.0001 228.792 12.3501C228.192 10.8501 225.442 8.50007 224.242 8.50007C223.292 8.50007 217.792 16.5501 214.792 22.3001C213.942 23.9001 212.892 25.7001 212.492 26.2501L211.692 27.2501L210.942 26.2501C210.542 25.7001 210.092 24.7001 209.942 24.0001C209.292 20.9501 207.092 12.5501 206.342 10.6001C205.142 7.20007 201.692 4.90007 200.392 6.60007Z" fill="black"/>
<path d="M6.94224 7.34998C6.79224 7.84998 6.44224 8.79998 6.19224 9.49998C5.54224 11.35 3.69224 18.45 3.24224 20.75C3.04224 21.85 2.49224 24.45 1.99224 26.5C1.49224 28.55 0.992236 31.15 0.792236 32.25C0.592236 33.4 0.292236 34.55 0.0922363 34.85C-0.457764 35.75 1.54224 37.75 3.69224 38.5C5.29224 39 6.14224 39.05 7.69224 38.6C8.74224 38.25 10.0922 38 10.7422 38C12.7922 38 16.7922 36.25 18.2922 34.7C19.8422 33.1 20.9922 29.7 20.1922 29.2C19.7922 28.95 13.5422 29.65 11.0922 30.25C10.4922 30.4 9.69224 30.3 9.29224 30.05C8.69224 29.65 8.79224 28.75 9.94224 24.4C10.7422 21.6 11.5422 17.95 11.7922 16.35C12.0422 14.7 12.3422 13.25 12.4922 13.05C12.9922 12.25 11.4922 8.84998 10.0922 7.69998C8.39224 6.29998 7.34224 6.14998 6.94224 7.34998Z" fill="black"/>
<path d="M310.492 8.50003C305.292 9.75003 299.292 16.25 299.242 20.65C299.242 22.5 300.792 25.4 302.842 27.3C304.642 29 308.192 31 309.492 31C311.042 31 310.892 32.55 309.192 34.3C308.292 35.25 307.342 36 307.042 36C306.142 36 301.292 40 300.992 41C299.442 45.9 312.042 42.95 315.292 37.7C316.092 36.35 316.392 35.05 316.442 32.9C316.492 29.95 316.442 29.85 314.242 27.9C313.042 26.8 310.692 25.25 308.992 24.45C305.742 22.8 305.242 22.3 305.242 20.6C305.242 19.1 306.392 18.2 311.642 15.5C315.342 13.6 315.992 13.05 316.142 11.9C316.242 10.95 315.892 10.1 315.042 9.25003C313.742 7.95003 313.042 7.85003 310.492 8.50003Z" fill="black"/>
<path d="M272.992 4.1C271.792 7.85 271.292 9.75 270.742 12.75C270.442 14.65 269.942 17.05 269.692 18.05C268.392 23.2 269.992 32.4 272.642 34.85C274.192 36.3 277.842 38 279.442 38C280.742 38 282.542 36.8 284.242 34.8C285.692 33.1 288.242 28.15 288.242 27C288.242 26.55 288.442 26 288.692 25.7C289.592 24.8 290.742 18.4 290.742 14.35C290.742 9.5 290.042 8 287.942 8.4C286.492 8.65 285.092 11.2 284.292 15.1C282.042 25.65 281.342 27.85 280.092 28.75C278.542 29.8 276.892 29.7 276.192 28.45C275.592 27.25 275.842 20.7 276.742 15C277.892 7.85 277.942 5.55 276.992 4.5C275.992 3.4 273.342 3.15 272.992 4.1Z" fill="black"/>
<path d="M291.492 80.8002C288.492 83.7002 284.092 88.7502 281.592 92.2002C279.092 95.6502 274.242 103.45 274.242 104C274.242 105.3 276.042 103.95 278.592 100.75C280.192 98.8002 281.592 97.0502 281.742 96.9002C281.892 96.7502 282.842 95.6002 283.892 94.2502C285.592 92.2002 287.242 91.2002 287.242 92.2502C287.242 92.6002 285.992 97.0502 284.242 103.15C281.292 113.3 280.542 118.85 282.542 116.15C282.942 115.6 283.392 114.6 283.542 113.9C283.692 113.2 283.992 112.2 284.242 111.65C284.442 111.1 285.242 108.45 286.042 105.75C287.392 100.95 288.192 99.5002 289.242 100.15C289.542 100.35 289.742 103.05 289.792 107.05C289.792 114.05 290.142 116 291.092 114.8C291.392 114.45 291.742 113.45 291.892 112.65C292.042 111.8 292.392 110 292.692 108.65C292.942 107.25 293.442 101.75 293.742 96.4002C294.292 86.4502 294.942 81.0002 295.792 80.1502C296.592 79.3002 296.242 78.4002 295.092 78.4002C294.442 78.4002 292.942 79.3502 291.492 80.8002Z" fill="black"/>
<path d="M230.692 59.6001C227.392 60.2001 222.892 62.1501 220.992 63.8001C214.442 69.4001 215.542 78.8501 223.392 83.9001C228.842 87.4501 232.792 88.3001 240.992 87.7501C243.442 87.6001 243.092 89.0001 239.892 92.1501C235.742 96.2501 227.792 101.7 221.942 104.5C215.392 107.65 205.092 110.65 196.192 112C186.542 113.5 168.042 113.6 157.242 112.25C139.842 110.05 129.892 107.75 110.742 101.4C100.892 98.1501 96.1922 96.1501 79.7422 88.2501C73.4922 85.2501 70.5422 84.4001 66.3422 84.4001C56.5422 84.4001 48.7422 90.9501 48.7422 99.1501C48.7422 103.4 51.6422 107.7 55.3422 108.85C56.8422 109.35 57.4922 109.3 58.9922 108.65C61.0422 107.8 61.0922 108.05 58.1422 104.5C56.9922 103.15 56.7422 102.4 56.7422 100.1C56.7422 96.5001 57.6422 94.5001 60.3922 92.1001C62.0422 90.6501 63.4922 89.9001 65.5422 89.4501C71.0922 88.2001 74.2422 89.2001 91.4922 97.9001C112.442 108.45 120.192 111.65 132.442 114.85C138.542 116.45 152.292 118.8 159.492 119.5C167.942 120.3 187.942 120.3 192.492 119.5C194.442 119.15 197.692 118.65 199.742 118.35C205.342 117.55 218.442 114.15 223.242 112.25C237.942 106.4 249.992 96.4501 255.242 85.7001L256.992 82.1501L268.492 76.4001C274.842 73.2501 280.692 70.4001 281.492 70.0501C282.342 69.7001 283.992 69.0501 285.242 68.5001C286.492 68.0001 291.042 66.6001 295.342 65.4001C299.642 64.2001 303.092 63.0001 302.942 62.8001C302.492 62.1001 295.092 62.4001 289.592 63.3501C282.642 64.6001 275.392 67.1501 268.492 70.7501C259.092 75.6501 257.742 76.2001 257.192 75.4001C256.942 75.0001 256.742 74.1501 256.742 73.5501C256.742 71.6001 254.242 66.8501 252.092 64.7001C249.342 62.0001 246.092 60.4501 241.342 59.6001C236.792 58.8001 235.092 58.8001 230.692 59.6001ZM239.492 64.9501C241.342 65.7001 244.292 68.9001 245.492 71.5001C247.092 74.9001 247.192 79.2001 245.792 80.9501C244.892 82.0501 244.492 82.1501 240.842 82.1001C236.042 82.0001 231.992 80.4001 229.392 77.5501C227.892 75.9501 227.742 75.5001 227.742 72.7001C227.792 69.2501 228.292 68.1001 230.642 66.1501C233.192 64.0501 236.192 63.6001 239.492 64.9501Z" fill="black"/>
<path d="M314.642 62.7502C313.292 64.3002 313.042 65.9002 314.042 66.9502C315.742 68.8002 320.742 67.7002 320.742 65.4502C320.742 64.9002 320.042 64.2002 318.992 63.7002C318.042 63.2502 317.142 62.6502 316.992 62.4002C316.542 61.6502 315.492 61.8002 314.642 62.7502Z" fill="black"/>
</svg>
