<svg width="766" height="100" viewBox="0 0 766 100" fill="none" xmlns="http://www.w3.org/2000/svg">
<path d="M243.4 3.06105C237.7 4.86105 232.75 6.66105 232.4 7.01105C231.95 7.46105 231.95 7.96105 232.4 9.26105C232.75 10.1611 233 12.1111 233 13.6111C233 15.0611 230.4 30.9111 227.2 48.8111C223.85 67.7111 221.45 82.7611 221.45 84.6611C221.4 88.8111 222.1 91.4111 223.9 93.9111C229 100.961 244.15 101.161 250.55 94.2611C253.85 90.6611 254.9 87.0611 253.1 85.4611C251.75 84.2111 250.1 84.4111 248.85 85.9111C245.65 89.7111 244.2 90.3111 242.1 88.7611C240.15 87.3111 240.2 85.7111 242.25 74.0611C243.25 68.4611 246.5 49.9611 249.5 32.9611C252.55 15.9611 255 1.66105 255 1.16105C255 0.661052 254.7 0.111052 254.4 0.011052C254.05 -0.138948 249.1 1.26105 243.4 3.06105Z" fill="white"/>
<path d="M16.25 7.31096C15.4 7.96096 15.35 8.21096 16 10.761C16.4 12.561 16.55 14.711 16.3 16.761C15.7 22.761 4.5 85.361 3.5 88.611C2.9 90.411 1.9 92.711 1.2 93.711C0.55 94.761 0 96.061 0 96.611C0 97.611 0.25 97.611 30.45 97.611H60.95L61.9 96.361C63.25 94.661 66.2 86.311 65.8 85.311C65.45 84.411 65.4 84.411 60 86.461L56.25 87.861L39.85 88.011L23.4 88.161L23.7 86.761C23.85 86.011 26.6 70.511 29.75 52.361C32.95 34.211 36 17.911 36.55 16.211C37.1 14.461 38.1 12.161 38.75 11.061C40.2 8.86096 40.35 7.36096 39.2 6.91096C38.75 6.76096 33.65 6.61096 27.8 6.61096C19.6 6.61096 17 6.76096 16.25 7.31096Z" fill="white"/>
<path d="M91.75 7.561C86.5 9.961 83.75 16.111 85.75 21.011C88.75 28.061 97.65 29.261 103.05 23.261C109.15 16.511 105.05 6.561 96.2 6.611C94.85 6.611 92.85 7.061 91.75 7.561Z" fill="white"/>
<path d="M377.8 7.26096C376.95 7.91096 376.9 8.16096 377.5 10.611C377.9 12.161 378 14.611 377.85 16.561C377.45 21.561 366.1 85.261 365 88.761C364.45 90.461 363.45 92.711 362.75 93.761C360.4 97.161 360.75 97.361 369 97.361H376.25L376.1 96.111C375.15 87.461 375.05 88.361 385.05 32.211C385.35 30.461 385.7 29.111 385.75 29.211C385.85 29.311 388.65 38.811 392 50.361C400.6 80.111 400.9 81.011 402 81.611C402.5 81.861 406.3 82.111 410.45 82.111C417.55 82.111 418 82.061 419.15 80.961C419.85 80.361 427.95 68.061 437.2 53.661C446.45 39.261 454 27.761 454 28.161C454 29.911 443.9 86.111 443.2 88.361C442.75 89.711 441.7 92.061 440.9 93.561C440.1 95.011 439.55 96.511 439.7 96.911C439.9 97.461 442.1 97.611 451.65 97.611C459.15 97.611 463.5 97.411 463.85 97.061C464.2 96.711 464.15 95.711 463.7 93.711C463.25 92.011 463.1 89.761 463.3 88.111C463.85 82.811 475.45 17.811 476.25 15.661C476.65 14.461 477.7 12.261 478.6 10.711C480.95 6.61096 480.75 6.51096 467.65 6.71096C457.05 6.86096 457 6.86096 455.8 8.11096C455.15 8.81096 447.55 20.361 438.9 33.861C418.1 66.261 418.45 65.711 418.25 65.511C418.15 65.411 414.65 53.761 410.5 39.611C400.8 6.46096 401.2 7.66096 399.65 7.06096C397.65 6.31096 378.85 6.46096 377.8 7.26096Z" fill="white"/>
<path d="M137.05 16.211L126.4 19.661L126.7 21.261C127.55 25.611 127.6 27.561 127 31.411L126.4 35.611H123.2C120.4 35.611 119.8 35.761 118.7 36.861C117.65 37.911 117.45 38.511 117.6 40.511L117.75 42.861L121.25 43.111C124.35 43.311 124.75 43.461 124.65 44.361C124.6 44.911 123.45 51.811 122.05 59.711C119.05 76.561 118.75 79.761 119.45 84.011C120.9 92.811 126.2 97.961 134.95 99.061C140.55 99.761 146.05 98.861 150.85 96.411C154.35 94.661 156.7 92.511 157.95 89.911C159.25 87.211 159.25 85.611 157.95 83.911C156.55 82.111 155.2 82.261 150.75 84.611C146.45 86.861 143.85 87.161 141 85.711C139.7 85.111 139.05 84.311 138.55 82.811C137.85 80.811 138 79.761 140.95 62.811C142.65 52.911 144.2 44.461 144.3 43.961C144.55 43.211 145.4 43.111 152.95 43.111C162.4 43.111 162.35 43.111 163.05 39.461C163.7 35.811 163.2 35.611 153.9 35.611C147.9 35.611 146 35.461 146 34.961C146 34.661 146.8 29.661 147.8 23.911C149.35 15.211 149.55 13.411 148.95 13.061C148.05 12.511 149.4 12.161 137.05 16.211Z" fill="white"/>
<path d="M189.3 16.111C183.6 17.961 178.65 19.761 178.4 20.011C178.05 20.361 178.15 21.261 178.75 22.861C179.55 24.911 179.6 25.661 179.05 29.961C178.75 32.611 178.35 34.961 178.2 35.161C178.05 35.411 176.55 35.611 174.8 35.611C170.95 35.611 170.05 36.261 169.45 39.361C168.85 42.611 169.35 43.111 173.3 43.111C176.25 43.111 176.5 43.211 176.5 44.211C176.5 44.761 175.35 51.711 173.9 59.561C170.1 80.411 170.25 86.111 174.65 92.511C179.5 99.661 192.9 101.511 203 96.361C209.4 93.111 212.95 85.861 209.35 83.361C207.75 82.261 206.3 82.461 203.65 84.111C199.45 86.761 195.45 87.311 192.6 85.611C190.75 84.461 190 82.861 190.05 80.211C190.05 79.211 191.45 70.461 193.15 60.861L196.3 43.361L205 43.111C213.7 42.861 213.7 42.861 214.35 41.611C215.2 39.961 215.15 36.861 214.35 36.161C213.95 35.861 210.55 35.561 205.7 35.511L197.7 35.361L199.55 24.661C200.95 16.761 201.3 13.761 200.9 13.261C200.6 12.911 200.25 12.611 200.05 12.661C199.9 12.661 195.05 14.211 189.3 16.111Z" fill="white"/>
<path d="M294.4 34.611C282.35 36.811 273.2 43.361 267.75 53.611C262.2 64.261 262.4 78.211 268.25 87.361C273.25 95.161 281.15 99.111 292 99.211C301.25 99.261 308.3 96.561 314.25 90.661C318.25 86.711 319.3 84.011 317.7 81.711C316.45 79.861 313.7 80.211 310.85 82.561C307.4 85.411 304.6 86.361 299.5 86.361C294.8 86.361 292.45 85.461 289.9 82.761C288.25 81.011 286.2 76.561 285.75 73.661C285.45 71.811 285.5 71.511 286.15 71.761C288.35 72.611 295.7 73.161 300.25 72.861C312.5 72.011 320.15 68.211 323.55 61.361C324.9 58.561 325.1 57.611 325.1 54.261C325.05 45.111 319.45 38.361 309.5 35.361C306.3 34.411 297.75 33.961 294.4 34.611ZM304.45 43.361C306.45 45.061 307.2 47.561 307.15 52.361C307.1 58.761 305.1 62.411 300.55 64.511C298.25 65.611 297 65.811 293.5 65.861C291.15 65.861 288.4 65.661 287.4 65.461C285.65 65.111 285.55 65.011 285.8 63.461C286.9 57.161 289.55 50.461 292.45 46.661C295.75 42.311 301.35 40.761 304.45 43.361Z" fill="white"/>
<path d="M513.75 34.561C499.25 36.911 487.65 46.311 483.2 59.361C480.5 67.261 481.05 77.611 484.55 84.561C489.75 94.961 501.8 100.711 515.15 99.061C524.5 97.961 531.7 94.461 538.25 87.861C545.6 80.561 548.7 73.111 548.7 63.111C548.65 54.161 546.2 47.761 540.75 42.361C537.35 39.011 533.2 36.611 528.75 35.411C525.2 34.461 517.25 34.011 513.75 34.561ZM522 42.861C525.8 44.811 527.65 49.911 527.55 58.311C527.45 73.011 522.1 87.261 515.45 90.661C508.75 94.061 503.15 88.611 502.6 78.261C501.85 63.811 507.8 46.311 514.6 42.961C516.7 41.911 520.1 41.861 522 42.861Z" fill="white"/>
<path d="M668.95 34.6111C656.2 36.6611 648.5 44.1611 648.5 54.6111C648.5 63.8111 652.25 68.2611 666.1 75.4111C674.55 79.7611 676.5 81.5111 676.5 84.6111C676.5 88.5611 672.75 91.0111 665.95 91.4611C663.15 91.6611 661.5 91.5111 659.6 90.9111C656.55 89.8611 655.95 89.0611 656.65 86.8611C657.4 84.4111 656.7 82.0111 654.75 80.1111C653.2 78.6111 652.6 78.3611 649.85 78.2111C647.25 78.0611 646.5 78.2111 645.05 79.2111C642.25 81.1111 641.35 82.7111 641.35 85.7611C641.35 94.0111 650.15 99.2111 664 99.2111C672.8 99.2111 679.6 97.3111 685 93.3611C693.4 87.2111 694.95 74.1611 688.15 66.6111C685.1 63.2111 683.1 61.9111 674.15 57.4111C665.7 53.1611 664 51.6611 664 48.6611C664 44.7611 667.85 42.1611 673.5 42.1111C675.6 42.1111 677.15 42.3611 677.8 42.8611C678.75 43.5111 678.8 43.7611 678.35 45.5611C677.1 50.2611 680.5 54.3111 685.7 54.3111C689.1 54.3111 691.55 52.8111 693 49.8111C694.2 47.3611 694.1 44.7611 692.75 42.1111C691.55 39.7611 687.65 36.7611 684.35 35.6111C680.8 34.4111 673.3 33.9111 668.95 34.6111Z" fill="white"/>
<path d="M734 34.861C717.3 38.011 705.45 51.661 704.65 68.611C703.95 83.761 711.4 95.011 724.5 98.361C728.9 99.511 736.75 99.511 741.25 98.361C752.25 95.561 762.1 85.861 758.25 81.611C756.75 79.961 754.45 80.311 751.7 82.611C747.1 86.411 739.2 87.661 734.4 85.411C730.5 83.561 727.35 78.911 726.7 73.961L726.35 71.711L728.55 72.211C732 73.061 744.15 72.911 748.5 71.911C756.05 70.211 761.95 66.311 764.5 61.261C765.55 59.211 765.75 58.161 765.75 54.111C765.75 50.011 765.55 48.961 764.4 46.511C761.95 41.211 756.7 37.161 749.95 35.311C745.9 34.211 738.4 34.011 734 34.861ZM744.5 42.861C747.05 44.161 747.75 46.211 747.75 52.111C747.75 57.861 747.05 60.011 744.15 62.711C741.2 65.561 734.9 66.811 729.4 65.661C726.05 64.961 726.05 65.011 727.5 59.311C729.45 51.611 733.6 44.911 737.65 42.911C739.7 41.911 742.65 41.911 744.5 42.861Z" fill="white"/>
<path d="M89.6501 38.5111C84.0501 40.3611 79.2501 42.1111 78.9501 42.4611C78.5001 42.9111 78.5001 43.4611 79.0501 44.7111C80.1501 47.3111 79.7501 51.3611 76.9501 66.6111C73.9501 83.1611 73.6501 87.4611 75.4001 91.3611C76.0501 92.7111 77.0501 94.3611 77.6501 95.0111C80.6001 98.2111 87.3001 99.9111 93.4001 99.0611C99.7001 98.1611 104.35 94.8611 106.25 89.8611C107.1 87.7611 107.1 87.3611 106.45 86.1611C105.2 83.9111 103.5 84.1611 100.55 87.1611C98.2501 89.5111 97.8501 89.7111 96.4001 89.4111C94.2501 89.0111 93.5001 87.9111 93.5001 85.1611C93.5501 83.9111 95.4001 72.4111 97.7001 59.6111C101.8 36.7611 102 35.0111 100.3 35.1611C100 35.1611 95.2001 36.7111 89.6501 38.5111Z" fill="white"/>
<path d="M574.1 37.111C568.8 38.111 564.2 39.211 563.9 39.511C563.55 39.861 563.55 40.511 563.95 41.661C564.9 44.461 564.55 48.811 562.2 62.011C559.6 76.911 559.35 81.911 561 87.111C563.1 93.811 568.15 98.061 575.25 99.061C583.8 100.261 592.75 96.161 598.25 88.461C599.35 86.911 600.4 85.661 600.65 85.611C600.85 85.611 601 86.411 601 87.361C601 91.161 603.6 95.161 607.35 97.261C614.25 101.011 625.15 99.561 630.05 94.261C633.35 90.661 634.4 87.061 632.6 85.461C631.25 84.211 629.6 84.411 628.35 85.911C627.75 86.611 626.85 87.661 626.4 88.161C624 90.711 620.35 89.361 620.1 85.811C620.05 84.761 621.85 73.161 624.2 60.111C627.55 41.361 628.3 36.211 627.8 35.711C627.3 35.211 625.2 35.461 616.8 37.061C611.1 38.111 606.2 39.211 605.9 39.511C605.6 39.811 605.7 40.811 606.25 42.411C607.2 45.261 607.1 46.461 604.7 60.111C602.75 71.211 601.7 74.761 599.2 78.911C595.65 84.861 591.8 87.611 587.05 87.611C582.45 87.611 579.9 85.161 579.2 80.011C579 78.511 579.95 71.961 582.5 57.661C584.45 46.561 586 36.961 585.9 36.411C585.8 35.761 585.35 35.311 584.75 35.261C584.2 35.261 579.4 36.061 574.1 37.111Z" fill="white"/>
</svg>
