<svg width="603" height="455" viewBox="0 0 603 455" fill="none" xmlns="http://www.w3.org/2000/svg">
<path d="M128.573 0.622612C123.717 1.75566 117.032 5.86298 113.795 9.61622C107.603 16.8394 105.632 22.7879 106.055 33.0562C106.266 39.5005 106.477 40.3503 108.729 44.0327C111.332 48.3524 115.203 51.5392 119.636 53.0971C123.295 54.301 133.569 54.301 137.228 53.0971C143.562 50.9018 150.739 43.7494 149.121 41.1292C147.995 39.3588 147.221 39.4297 144.617 41.6958C140.043 45.6614 136.665 46.8653 131.177 46.5112C125.336 46.0863 121.958 43.891 119.847 39.1464C113.795 25.1957 124.28 5.93379 138.002 5.93379C143.351 5.93379 144.688 7.35011 144.125 12.6613C143.773 16.3437 143.914 16.8394 145.391 17.9017C147.573 19.3888 149.684 19.318 151.795 17.6184C157.002 13.5111 152.428 3.88014 143.914 1.11832C140.114 -0.156361 132.725 -0.368809 128.573 0.622612Z" fill="black"/>
<path d="M316.055 1.13697C307.943 3.96375 301.3 9.89998 297.803 17.5323C293.118 27.7087 294.446 41.2065 300.74 47.9908C306.824 54.4924 321.999 56.0471 331.16 51.0296C336.334 48.1321 337.313 46.7187 338.712 39.7225C339.411 36.2597 340.32 32.7262 340.74 31.8782C341.229 31.0301 341.579 30.1821 341.579 29.9701C341.579 29.7581 338.432 29.5461 334.586 29.5461H327.523L328.013 32.0195C328.432 34.5636 327.244 42.9733 326.055 45.2347C325.216 46.9307 318.642 46.9307 315.216 45.3054C308.642 42.1959 305.845 33.2209 308.362 23.4685C311.02 13.1508 318.642 5.94249 326.964 5.87182C332.418 5.87182 333.467 6.86119 332.908 11.6667C332.488 15.1295 332.628 15.6242 334.306 17.2496C335.705 18.7337 336.474 19.0163 338.292 18.663C345.985 17.1789 343.817 6.50785 334.936 1.773C331.02 -0.276415 321.02 -0.629762 316.055 1.13697Z" fill="black"/>
<path d="M29.1339 2.17867C28.5666 2.872 26.5101 6.408 24.5244 10.0133C22.6097 13.6187 19.7022 19.096 18.0003 22.1467C16.3692 25.1973 13.3908 30.6747 11.4052 34.28C5.73195 44.8187 4.45548 46.968 2.68261 49.048C0.0587516 52.0987 0.413327 53 4.38457 53C8.07215 53 9.49045 52.168 9.49045 49.9493C9.49045 49.1173 11.1215 45.5813 13.1071 42.0453L16.6529 35.6667H26.1555C34.5944 35.6667 35.6581 35.8053 36.0127 36.8453C36.7927 39.48 38.0692 47.2453 38.1401 49.88L38.211 52.6533L44.8061 52.8613C52.0395 53.0693 53.1032 52.5147 51.1176 49.3947C50.5502 48.4933 49.4865 44.68 48.8483 40.8667C48.1391 37.0533 47.2882 32.3387 46.9336 30.4667C46.579 28.5253 46.0117 25.4053 45.6571 23.5333C42.9623 8.00267 41.8277 2.59467 41.2604 1.832C40.764 1.34667 38.6365 1 35.3744 1C31.4032 1 30.0558 1.27734 29.1339 2.17867ZM31.7578 11.8853C31.9705 12.5787 32.3251 14.6587 32.5378 16.6C32.8215 18.472 33.4597 22.3547 34.027 25.1973C34.5944 28.04 34.9489 30.744 34.7362 31.2987C34.4525 31.992 32.4669 32.2 26.8646 32.2C20.1986 32.2 19.4186 32.0613 19.4186 30.952C19.4186 30.2587 19.7022 29.4267 20.0568 29.0107C20.3404 28.664 21.9006 26.0293 23.3898 23.1867C29.8431 10.776 30.9777 9.25067 31.7578 11.8853Z" fill="black"/>
<path d="M65.6 2.04C65.3226 2.59467 65.3919 3.56534 65.6 4.18934C66.0161 5.29867 64.629 14.312 61.8548 29.08C61.1613 32.8933 60.3984 37.4 60.121 39.1333C59.5661 43.432 58.3177 48.3547 57.6242 49.1173C57.2774 49.5333 57 50.504 57 51.4053V53H68.6516C81.1355 53 87.0306 52.2373 90.9839 50.2267C96.5323 47.3147 99.9306 42.0453 100 36.2907C100 32.408 96.879 27.2773 93.7581 25.96C92.6484 25.4747 91.3306 24.712 90.9145 24.1573C90.2903 23.3947 90.429 23.1867 91.6081 23.1867C92.5097 23.1867 94.5903 21.7307 96.5323 19.72C99.9306 16.392 100 16.2533 100 11.9547C100 7.864 99.7919 7.37867 97.6419 5.09067C94.1742 1.55467 91.4694 1 77.8758 1C67.9581 1 65.8774 1.13867 65.6 2.04ZM83.979 7.30934C85.1581 7.72534 86.4758 8.62667 86.8226 9.32C87.7242 11.0533 87.7242 15.0747 86.6839 17.224C85.6435 19.512 80.9274 21.8 77.1823 21.8C74.2 21.8 74.2 21.8 74.6161 19.72C74.8242 18.5413 75.379 15.4907 75.7952 12.9253C76.2113 10.36 76.6968 7.864 76.8355 7.37867C77.1129 6.33867 80.9968 6.26934 83.979 7.30934ZM83.2855 28.456C85.1581 29.2187 86.2677 30.1893 86.8919 31.7147C88.0016 34.28 88.0016 38.648 86.9613 41.352C85.8516 44.1253 81.0661 46.552 75.5871 47.1067C71.4952 47.5227 70.8016 47.4533 70.3855 46.4133C70.0387 45.3733 72.2581 31.7147 73.2984 28.1787C73.7145 27 79.9565 27.1387 83.2855 28.456Z" fill="black"/>
<path d="M163.117 1.48575C162.838 1.69392 162.629 3.56752 162.629 5.57989C162.629 7.59227 162.28 10.7149 161.932 12.5885C161.095 16.5439 158.725 30.006 157.331 39.027C156.773 42.6354 155.657 47.0071 154.96 48.8807C154.263 50.6849 153.845 52.4197 154.054 52.6278C154.751 53.2524 172.18 53.0442 177.966 52.3503C191.281 50.6155 201.529 42.7741 204.876 31.6714C206.34 26.8139 206.409 18.4175 204.876 14.3233C203.76 11.3394 199.856 5.85746 198.741 5.85746C198.392 5.85746 197.277 5.23293 196.161 4.46961C193.094 2.17967 185.704 1 174.062 1C168.276 1 163.326 1.20818 163.117 1.48575ZM188.284 8.77194C191.909 11.2007 193.512 14.7397 193.861 20.985C194.349 29.4508 191.7 36.737 186.332 41.8027C182.219 45.758 179.569 46.7989 173.156 47.0071L167.857 47.1459L167.648 44.7865C167.509 43.4681 167.718 41.1087 168.067 39.5821C168.903 36.1819 169.67 32.4347 172.04 18.695C173.086 12.9355 173.992 7.86984 174.201 7.3147C174.411 6.62078 175.735 6.4126 180.057 6.69017C184.449 6.96774 186.123 7.38409 188.284 8.77194Z" fill="black"/>
<path d="M218.688 1.75659C218.618 2.2517 218.688 3.59557 218.758 4.79798C218.758 5.92965 218.337 9.74906 217.706 13.2856C217.075 16.7513 215.813 24.1072 214.901 29.5534C212.587 43.275 211.955 46.1749 210.763 49.7114C210.202 51.4089 209.851 53.0357 210.062 53.3893C210.693 54.3796 242.884 54.0966 244.147 53.0357C245.339 52.1162 247.162 47.731 246.671 47.2359C246.461 47.0237 244.147 47.1651 241.481 47.5895C235.801 48.3675 225.07 48.509 223.878 47.731C222.966 47.1651 225.211 31.6046 226.403 30.4022C227.104 29.6949 236.642 30.1192 239.868 30.968C241.481 31.3924 241.762 31.1802 242.113 29.3412C242.323 28.2095 242.744 26.4413 242.954 25.4511L243.445 23.6828L235.31 24.0365C229.419 24.3194 227.174 24.2487 227.174 23.6121C227.174 21.9146 229.419 9.81979 230.05 8.12228L230.681 6.42476L240.359 6.70768C245.619 6.91987 250.388 7.20279 250.879 7.34425C252.492 7.83936 253.544 5.50527 252.703 3.24192L252.072 1.26149L235.38 1.0493C222.335 0.907837 218.758 1.0493 218.688 1.75659Z" fill="black"/>
<path d="M261.097 1.83226C260.958 2.31774 260.678 4.74516 260.468 7.24194C260.328 9.73871 259.348 16.1194 258.368 21.4597C257.458 26.8 256.058 34.6371 255.288 38.7984C254.519 43.0291 253.399 47.6758 252.769 49.1323C252.139 50.5887 251.859 52.0452 252.069 52.392C252.489 53.1549 263.617 53.2242 264.597 52.4613C265.017 52.1839 265.367 49.6871 265.437 46.8436C265.577 42.1968 266.207 37.8968 267.606 32.9032C268.096 31.3081 268.516 31.1694 272.856 30.9613C275.445 30.8226 278.735 31.1 280.134 31.4468C283.354 32.3484 284.194 31.6549 284.824 27.5629L285.244 24.7194L277.195 25.0661C267.746 25.5516 268.376 26.6613 270.686 14.5936L272.296 6.40968L282.094 6.75645C287.483 6.96452 292.522 7.24194 293.292 7.38065C294.412 7.51936 294.762 7.17258 294.902 5.3C295.322 1.06935 295.182 1 277.405 1C265.227 1 261.307 1.20806 261.097 1.83226Z" fill="black"/>
<path d="M354.762 1.66135C354.553 2.07836 354.553 2.98188 354.762 3.8159C355.18 5.13644 354.065 12.5036 350.929 29.1146C350.232 32.9372 349.466 37.5938 349.187 39.5399C348.699 43.3625 347.724 47.0461 346.609 49.4091C345.076 52.5367 346.191 53.1622 352.811 52.9537L358.943 52.7452L359.431 46.8375C359.64 43.571 360.337 38.5668 360.964 35.7173C361.591 32.8677 362.079 30.2961 362.079 29.9486C362.079 29.6706 366.818 29.4621 372.532 29.4621C380.755 29.4621 382.984 29.6706 382.984 30.3656C382.984 32.5897 379.361 49.3396 378.664 50.1041C378.246 50.5906 378.106 51.4942 378.385 52.0502C378.734 52.9537 379.918 53.0927 384.866 52.9537L390.998 52.7452L391.207 49.6176C391.416 46.5595 393.158 35.5087 396.434 16.9518C397.34 11.8086 398.664 6.31797 399.291 4.85843C399.918 3.32939 400.197 1.86985 399.848 1.52234C399.5 1.17483 396.434 0.966329 393.019 1.10533C386.887 1.31384 386.817 1.31384 386.956 3.05138C387.096 4.92793 385.423 17.7858 384.518 21.8169L383.96 24.2494L373.716 24.458L363.473 24.6665V22.7204C363.473 19.5928 366.19 6.38747 367.305 4.23292C367.863 3.12089 368.142 1.93935 367.932 1.59185C367.445 0.757824 355.319 0.827325 354.762 1.66135Z" fill="black"/>
<path d="M409.545 1.20116C409.473 1.33991 409.329 3.14369 409.257 5.22498C409.113 7.37564 408.536 11.6076 407.96 14.5908C407.383 17.6433 406.518 22.2915 406.014 24.9972C405.581 27.6335 404.933 31.2411 404.572 32.9755C404.212 34.7099 403.419 38.8031 402.843 42.0638C402.194 45.3244 401.257 48.932 400.609 50.042C400.032 51.1521 399.816 52.2621 400.176 52.609C400.464 52.8865 403.635 53.0946 407.167 52.9558L413.581 52.7477L413.725 48.6545C413.797 46.4345 414.518 41.0925 415.311 36.8605C418.914 18.4065 420.427 9.94256 420.427 8.69379C420.427 7.93065 421.076 6.19625 421.869 4.8781C422.662 3.49057 423.166 2.10305 422.95 1.68679C422.589 1.20116 409.833 0.715523 409.545 1.20116Z" fill="black"/>
<path d="M431.491 1.49166C431.42 1.84191 431.491 3.17285 431.491 4.50379C431.632 6.67532 430.43 14.1706 427.955 27.6201C427.601 29.7216 426.964 33.2241 426.611 35.3255C426.257 37.427 425.338 42.6107 424.56 46.8837C423.782 51.0867 423.074 55.2896 423.074 56.2003C423.074 61.1037 418.194 66.2173 414.658 65.0965C413.455 64.7463 413.172 64.0458 413.172 61.5941C413.172 59.0723 412.819 58.2317 411.404 57.3211C408.646 55.4998 404.826 56.5505 403.624 59.3525C402.351 62.4347 402.987 64.8864 405.887 67.6183C408.292 70 408.363 70 415.153 70C421.66 70 422.155 69.93 425.196 67.8285C432.34 62.855 434.108 58.5119 437.22 38.828C437.644 35.956 438.281 32.3134 438.634 30.7723C439.837 25.4486 439.978 24.3978 441.11 17.2528C441.676 13.26 442.807 8.28645 443.585 6.04487C444.363 3.87334 445 1.84191 445 1.56171C445 0.861215 431.562 0.791166 431.491 1.49166Z" fill="black"/>
<path d="M453.081 1.48569C452.801 1.69384 452.59 3.49784 452.59 5.37122C452.59 8.63228 451.607 15.1544 449.361 27.0191C448.729 30.0721 447.817 35.4147 447.325 38.8839C446.764 42.3531 445.711 46.7937 444.939 48.8058C443.184 53.1771 443.184 53.1771 451.256 52.8995L457.153 52.6914L457.293 48.5283C457.504 43.0469 458.908 35.1371 460.101 32.7781C461.084 30.7659 463.54 28.7538 465.015 28.7538C465.506 28.7538 467.12 31.1822 468.594 34.0964C470.139 37.0799 472.455 41.5899 473.859 44.1571C475.263 46.7243 476.456 49.7078 476.597 50.7486L476.807 52.6914L483.757 52.8995C487.688 52.9689 491.057 52.7608 491.408 52.4138C491.829 51.9975 491.408 50.5405 490.004 48.3895C488.881 46.5855 487.126 43.4632 486.143 41.5899C480.879 31.3904 476.176 22.7867 475.684 22.1622C474.842 21.3296 474.842 19.2481 475.684 18.9012C476.246 18.693 480.738 14.9463 486.494 9.8812C488.109 8.42413 490.917 6.27321 492.742 5.02429C497.445 1.83261 497.164 0.999999 491.197 0.999999C486.494 0.999999 486.284 1.06938 485.441 3.01215C484.95 4.05291 479.966 8.84044 474.35 13.5586C468.735 18.2073 464.102 22.3704 463.962 22.6479C463.4 23.8968 461.715 23.1336 461.715 21.6072C461.715 18.7624 464.523 5.78752 465.576 3.84476C466.138 2.73461 466.348 1.69384 466.138 1.41631C465.576 0.86123 453.643 0.86123 453.081 1.48569Z" fill="black"/>
<path d="M504.655 1.39869C504.444 1.67617 504.444 2.71668 504.655 3.82657C504.867 4.93646 504.655 7.91928 504.162 10.4859C503.739 13.0525 502.752 18.3245 502.047 22.1397C501.342 25.9549 500.284 32.198 499.579 36.0133C498.945 39.8285 497.746 44.8924 497.041 47.3202C496.266 49.7481 495.843 51.9679 496.054 52.3147C496.618 53.2165 528.555 53.2165 530.177 52.3841C531.517 51.6211 533.561 46.3491 532.856 45.586C532.574 45.3779 531.517 45.5167 530.459 46.0023C528.062 47.1121 511.283 47.8058 509.873 46.904C508.886 46.2104 509.379 42.5339 513.327 22.1397C514.032 18.3245 514.808 13.6074 515.09 11.7345C515.372 9.79221 516.147 6.87876 516.923 5.21393C517.628 3.5491 518.262 1.95364 518.262 1.6068C518.262 0.913119 505.36 0.774384 504.655 1.39869Z" fill="black"/>
<path d="M545.682 4.60534C545.682 6.616 545.196 10.9147 544.571 14.1733C544.015 17.432 542.695 24.5733 541.723 30.12C540.819 35.6667 539.778 41.6293 539.43 43.3627C539.083 45.096 538.388 47.6613 537.763 49.1173C537.138 50.5733 536.86 52.0293 537.068 52.376C537.485 53.0693 542.209 53.208 543.876 52.584C544.64 52.3067 544.848 51.6827 544.571 50.4347C544.084 48.7013 544.848 43.224 547.071 31.5067C547.766 27.9013 548.6 22.9787 548.877 20.552C549.711 13.2027 550.406 13.896 553.601 24.92C558.116 40.52 559.019 43.224 559.992 43.5707C560.617 43.7787 562.562 43.9867 564.368 43.9867C567.911 43.9867 571.384 42.0453 571.384 40.104C571.384 39.5493 571.731 39.1333 572.079 39.1333C572.495 39.1333 572.773 38.856 572.773 38.5093C572.773 37.8853 576.941 31.2293 578.33 29.6347C578.678 29.1493 579.025 28.5947 579.025 28.3867C579.025 28.1787 579.581 27.1387 580.345 26.0987C581.039 25.0587 583.123 21.9387 584.999 19.096C587.013 16.0453 588.472 14.4507 588.611 15.0747C588.75 15.6987 588.194 19.2347 587.43 22.9787C586.666 26.7227 585.902 31.16 585.624 32.8933C584.721 39.8267 582.568 48.7707 581.595 50.0187C581.248 50.504 581.109 51.4053 581.387 51.96C581.665 52.792 582.984 53 587.5 53C590.695 53 593.612 52.7227 593.96 52.4453C594.377 52.168 594.724 49.6027 594.793 46.76C594.863 43.9173 595.766 37.192 596.738 31.8533C597.78 26.5147 599.239 18.68 600.003 14.52C600.767 10.2907 601.879 5.85334 602.365 4.536C602.921 3.288 603.129 1.97067 602.921 1.624C602.296 0.653336 591.39 0.930669 590 1.97067C589.306 2.456 588.75 3.08 588.75 3.288C588.75 3.56534 587.152 6.13067 585.138 9.112C583.193 12.0933 580.9 15.6293 580.067 16.9467C579.233 18.264 576.941 21.8 574.996 24.712C572.982 27.6933 571.384 30.328 571.384 30.6747C571.384 31.576 568.814 33.7253 568.466 33.1013C568.05 32.2693 565.549 24.2267 562.284 13.1333C560.756 7.79467 559.158 2.872 558.811 2.248C558.255 1.208 557.144 1 551.934 1H545.682V4.60534Z" fill="black"/>
<path d="M78.5211 78.2499C71.473 80.9395 67.1465 84.2661 63.3084 90.1406C56.4697 100.616 56.1905 115.125 62.7502 123.336C67.4256 129.069 76.2881 132.112 84.2434 130.626C99.1072 127.936 109.854 113.851 108.947 98.1386C108.458 89.079 104.76 82.9213 97.5719 79.1701C92.7569 76.6928 83.8944 76.2682 78.5211 78.2499ZM91.2217 83.346C92.1986 83.8414 93.8734 85.4693 94.9202 87.0264C96.8043 89.716 96.8741 90.2822 96.8741 97.7139C96.8741 104.579 96.595 106.278 94.9202 111.02C91.2915 121 87.1743 125.034 80.6146 125.034C72.8687 125.034 69.868 120.858 69.9378 110.1C70.0076 95.0951 77.4046 82.5674 86.1275 82.5674C88.0116 82.5674 90.2447 82.9213 91.2217 83.346Z" fill="black"/>
<path d="M183.785 78.1816C182.379 78.5312 180.833 79.1605 176.405 81.188C172.399 83.0059 166.074 89.9276 163.544 95.1013C161.576 99.2963 161.295 100.625 161.084 107.267C160.873 114.188 160.943 115.027 162.7 118.943C163.755 121.18 165.371 123.837 166.285 124.676C168.323 126.564 168.393 127.822 166.636 128.801C165.441 129.43 162.349 133.625 162.349 134.604C162.349 134.814 164.528 134.814 167.198 134.604C169.869 134.394 172.821 134.394 173.735 134.604C174.648 134.884 177.46 136.841 179.919 139.009C187.369 145.511 192.992 147.189 200.09 145.231C204.799 143.903 207.681 141.665 209.086 138.24C210.562 134.744 210.351 132.506 208.384 130.549C206.275 128.381 203.745 128.311 201.355 130.339C199.528 132.017 199.036 134.184 199.95 137.331C200.653 139.987 197.982 141.246 194.116 140.127C191.305 139.288 184.417 132.926 185.12 131.737C185.331 131.388 186.807 130.898 188.424 130.619C195.733 129.43 204.448 122.718 208.524 115.097C212.46 107.686 213.163 96.7094 210.07 89.8576C206.627 82.2368 200.512 78.3914 191.165 78.0418C187.861 77.9719 184.558 77.9719 183.785 78.1816ZM195.452 85.0334C201.496 89.1585 201.847 104.121 196.084 115.587C192.5 122.718 189.056 125.305 183.293 125.305C178.443 125.305 175.913 123.767 174.086 119.852C170.502 111.881 173.735 94.6819 180.13 87.6203C184.347 83.0059 190.813 81.8872 195.452 85.0334Z" fill="black"/>
<path d="M281.531 77.5705C277.424 78.8445 273.735 81.4632 271.438 84.5772C269.28 87.6206 269.002 88.3283 269.002 92.7163V97.529L272.691 101.209C274.64 103.262 277.285 105.385 278.399 105.951C286.473 110.056 289.884 113.666 289.884 118.124C289.815 123.362 286.125 126.476 279.93 126.476C274.919 126.476 271.786 124.99 271.786 122.583C271.786 121.663 272.134 120.672 272.482 120.46C273.526 119.823 273.318 116.426 272.065 114.798C271.369 113.807 270.255 113.383 268.306 113.383C260.927 113.383 261.345 123.008 268.932 127.821C277.007 132.846 290.789 131.784 297.402 125.556C301.23 121.946 302.971 114.232 301.022 109.136C299.56 105.173 294.13 100.572 285.499 96.0428C278.817 92.5748 278.469 85.2142 284.733 82.1709C287.587 80.7554 292.947 81.1801 294.548 82.8079C295.523 83.7987 295.523 84.1526 294.478 86.4174C293.573 88.3283 293.504 89.2484 294.13 90.5931C295.592 93.9195 300.952 93.5656 302.483 90.0977C304.363 85.922 300.952 80.4723 294.896 78.066C291.833 76.8628 284.664 76.6505 281.531 77.5705Z" fill="black"/>
<path d="M10.1027 81.3684C10.1027 83.193 9.61784 87.2632 9.06369 90.3509C8.50955 93.4386 7.40127 99.7544 6.63932 104.386C4.35348 117.509 2.41398 126.772 1.7213 127.474C0.128142 129.228 1.16716 130 4.90762 130H8.71735V126.772C8.71735 125.018 9.34076 119.895 10.172 115.404C10.9339 110.912 12.1115 104.105 12.7349 100.316C13.3583 96.5263 14.1895 93.4386 14.6051 93.3684C14.9515 93.3684 15.7827 94.2105 16.4061 95.3333C16.9602 96.4561 18.5534 99.2632 19.8002 101.579C21.047 103.895 22.7095 106.912 23.4714 108.246C24.2334 109.579 25.6187 112.105 26.5192 113.86C30.2597 121.158 33.8616 127.614 34.9006 128.737C35.6625 129.719 37.0479 130 40.3035 130C44.321 130 44.7366 129.86 45.083 128.386C45.4293 126.842 46.122 122.842 49.1698 105.088C51.7327 90.4211 53.6722 81.5088 54.5727 80.386C55.8195 78.8421 54.2956 77.9298 50.5551 78.2105L47.161 78.4211L47.0225 82.9825C46.9532 85.5088 46.3991 90.2105 45.7756 93.5088C45.2215 96.807 44.2518 102.281 43.6976 105.789C41.8966 116.737 41.7581 116.947 39.4723 112.596C38.7103 111.193 37.1864 108.386 36.0782 106.491C35.0391 104.526 33.446 101.719 32.6148 100.175C29.0128 93.5789 25.965 87.9649 23.4714 83.3333L20.8392 78.4211L15.4363 78.2105L10.1027 78V81.3684Z" fill="black"/>
<path d="M121.061 81.6541C121.061 83.6919 120.573 88.0486 119.945 91.3514C119.388 94.6541 118.133 101.751 117.227 107.162C114.997 119.811 113.673 126.065 112.767 127.822C112.348 128.595 112 129.368 112 129.578C112 129.789 115.206 130 119.039 130H126.079L125.661 127.681C125.452 126.486 125.591 123.535 126.009 121.216C126.427 118.897 126.915 115.384 127.194 113.486L127.682 109.973L134.93 109.481C143.852 108.778 149.358 106.951 153.191 103.157C156.745 99.6432 158 96.6919 158 91.7027C158 85.4486 155.282 81.7243 149.148 79.4054C145.942 78.2108 143.712 78 133.258 78H121.061V81.6541ZM142.527 85.5892C145.036 87.4865 146.43 91.2108 145.803 94.5838C145.176 97.9568 140.785 102.173 136.812 103.227C132.561 104.281 129.424 104.211 129.424 103.086C129.424 100.065 132.003 85.3784 132.77 84.0432C133.397 82.9189 140.297 84.0432 142.527 85.5892Z" fill="black"/>
<path d="M223.853 83.0595C223.644 85.8703 222.737 92.7568 221.692 98.3784C220.716 104 219.322 111.87 218.625 115.946C217.858 120.022 216.743 124.519 216.115 126.065C215.488 127.541 215 129.016 215 129.368C215 129.719 218.067 130 221.831 130H228.593L228.732 124.87C228.802 120.303 230.545 109.551 231.451 108.076C232.008 107.162 236.33 107.443 237.097 108.357C238.282 109.973 242.743 123.746 243.371 127.681L243.719 130H250.62C254.384 130 257.521 129.719 257.521 129.438C257.521 129.086 256.894 127.611 256.197 125.995C255.43 124.449 253.548 119.53 252.014 115.032L249.296 106.811L251.248 105.405C252.293 104.632 253.478 104 253.827 104C254.593 104 258.985 99.2919 260.17 97.1838C261.425 94.7946 261.216 87.4865 259.821 85.1676C255.988 79.2649 251.875 78 236.051 78H224.201L223.853 83.0595ZM246.02 85.5189C246.995 86.2216 248.041 87.8378 248.39 89.1027C250.411 96.2 244.834 101.892 235.842 101.892C232.566 101.892 232.427 101.822 232.427 99.8541C232.427 98.8 232.706 96.973 233.054 95.8486C233.403 94.7243 234.1 91.4919 234.588 88.6108L235.494 83.4108L239.885 83.8324C242.395 84.1135 245.044 84.8162 246.02 85.5189Z" fill="black"/>
<path d="M311.119 80.3892C310.489 81.7243 310 83.1297 310 83.4811C310 83.973 312.867 84.1838 317.901 84.1135L325.732 83.973L325.522 86.4324C325.382 87.7676 324.683 92.0541 323.984 95.9189C323.285 99.7838 322.166 105.968 321.537 109.622C319.509 121.146 318.6 125.503 317.761 127.049C316.293 129.789 316.712 130 323.564 130H330.137L330.416 125.222C330.696 120.584 332.514 109.481 335.171 95.9189C335.94 91.9838 336.569 87.9784 336.569 86.9946C336.569 83.973 338.037 83.4108 344.82 83.7622C348.176 83.973 351.392 84.2541 351.951 84.3946C352.79 84.6054 353 83.973 353 81.5135V78.3514L332.654 78.1405L312.237 78L311.119 80.3892Z" fill="black"/>
<path d="M357.74 78.1404C357.67 78.2808 357.6 80.2467 357.46 82.6338C357.39 85.0209 356.971 88.9526 356.482 91.4099C356.063 93.8672 355.086 99.3435 354.318 103.486C351.943 116.404 352.642 121.249 357.53 126.234C363.187 131.921 375.198 132.623 382.461 127.778C388.397 123.846 390.981 118.44 393.425 104.679C394.194 100.256 395.311 93.7268 395.939 90.2866C396.568 86.7761 397.476 83.055 398.035 81.9317C399.711 78.351 399.431 77.9298 395.381 78.1404C391.68 78.351 391.68 78.351 391.54 80.8084C391.261 84.6699 389.235 97.2373 387.42 106.715C385.045 118.44 382.252 122.513 375.757 123.355C370.031 124.127 365.561 121.53 364.304 116.685C363.745 114.509 365.91 98.501 367.866 89.5845C369.262 83.6167 369.961 81.0892 370.519 80.3169C371.846 78.5617 370.24 78 364.025 78C360.603 78 357.809 78.0702 357.74 78.1404Z" fill="black"/>
<path d="M403 78.7715C403 79.1923 403.423 80.3846 403.916 81.4366C404.902 83.4004 405.183 84.4525 408.283 101.916C410.396 113.488 412.72 126.043 413.284 128.427C413.565 129.97 413.847 130.04 419.623 129.83L425.68 129.62L427.23 126.814C428.145 125.271 430.611 120.712 432.724 116.645C434.907 112.577 438.006 106.755 439.626 103.67C441.317 100.584 443.993 95.5338 445.613 92.4479C450.544 83.1199 452.516 80.1742 453.784 80.1742C455.404 80.1742 456.39 84.8733 457.165 95.9546C457.658 102.477 458.292 110.543 458.644 113.839C458.996 117.136 459.489 122.115 459.771 124.85L460.264 129.97H466.181H472.097L473.506 126.604C474.351 124.78 475.548 121.975 476.323 120.362C477.028 118.678 477.662 117.206 477.662 116.995C477.662 116.855 478.436 115.031 479.352 112.998C482.803 105.353 484.705 100.654 484.705 99.8822C484.705 99.4614 484.987 99.1107 485.339 99.1107C486.184 99.1107 486.748 103.179 487.522 116.715C487.945 123.307 488.438 129.059 488.649 129.409C488.861 129.69 491.608 129.97 494.777 129.97C501.257 129.97 500.201 130.882 503.793 122.606C505.413 118.819 507.174 114.891 509.71 109.28C510.555 107.317 512.879 101.986 514.922 97.3574C520.275 85.2239 522.247 81.5068 523.656 80.595C526.192 78.9819 525.065 78 520.909 78.2104L516.964 78.4208L515.344 82.6289C514.499 84.9434 513.091 88.38 512.245 90.3438C509.217 97.0768 508.794 98.0587 507.244 101.565C502.384 112.857 500.412 116.925 499.778 117.136C499.285 117.276 498.792 114.4 498.51 109.14C498.229 104.581 497.736 96.3053 497.383 90.6945C497.031 85.0837 496.609 79.9638 496.327 79.2624C495.975 78.3507 494.989 78.0701 492.453 78.0701C490.622 78.0701 488.79 78.4909 488.438 78.9118C488.086 79.4027 486.536 82.6289 485.057 86.1357C483.578 89.5723 482.099 92.7284 481.747 93.0791C481.465 93.4999 481.183 94.2013 481.183 94.6922C481.183 95.1832 480.409 97.2171 479.493 99.251C478.577 101.285 476.464 106.194 474.844 110.122C473.154 114.12 471.534 117.346 471.252 117.346C470.97 117.346 470.548 115.663 470.336 113.629C470.125 111.665 469.632 106.335 469.209 101.916C468.716 97.4976 468.153 90.3438 467.871 86.1357L467.448 78.4208L457.024 78.2104L446.67 78L445.966 79.9638C445.191 82.138 443.782 84.8733 435.189 100.864C431.949 107.036 428.216 114.05 426.948 116.434C425.751 118.889 424.483 120.853 424.131 120.853C423.849 120.853 423.356 119.52 423.074 117.837C422.863 116.224 422.018 111.735 421.313 107.878C417.51 87.5384 416.383 81.086 416.594 79.8235C416.735 78.4909 416.242 78.4208 409.903 78.2104C405.254 78.0701 403 78.2805 403 78.7715Z" fill="black"/>
<path d="M525.486 78.6862C525.276 79.0377 525.627 80.2327 526.33 81.3574C527.805 83.5364 529.351 86.6996 533.919 96.5406L537.151 103.5L533.778 107.787C526.822 116.715 517.335 127.891 516.703 127.891C516.281 127.891 516 128.383 516 128.946C516 129.789 516.914 130 520.216 130C523.8 130 524.432 129.789 524.432 128.735C524.432 127.68 529.492 120.862 536.519 112.567C538.697 109.896 540.314 109.685 541.016 111.864C541.578 113.692 545.092 121.635 546.638 124.517C547.2 125.501 547.622 127.188 547.622 128.172V130H555C563.292 130 563.503 129.859 560.622 125.642C559.638 124.236 558.865 122.83 558.865 122.549C558.865 122.338 557.951 120.159 556.827 117.769C551.557 106.592 549.73 102.516 549.73 101.813C549.73 100.899 558.865 89.441 564.346 83.5364C566.314 81.3574 568 79.1783 568 78.7565C568 77.7021 560.762 77.7724 559.708 78.8268C559.216 79.3189 558.865 80.0921 558.865 80.5841C558.865 81.4979 549.027 94.3615 547.692 95.1348C547.341 95.3456 546.778 95.1348 546.427 94.6427C545.092 92.8151 541.016 83.1147 540.595 80.795L540.243 78.3348L533.076 78.1239C528.649 77.9833 525.768 78.1942 525.486 78.6862Z" fill="black"/>
<path d="M240.307 152.84C235.412 155.318 232.825 159.213 231.706 165.587C230.797 171.252 230.377 171.96 227.58 172.526C225.902 172.81 225.482 173.305 225.482 174.651C225.482 175.996 225.902 176.421 227.44 176.634C229.118 176.846 229.328 177.058 229.118 179.325C228.979 180.67 228.349 184.99 227.58 188.885C226.881 192.779 225.762 199.153 225.132 203.047C224.573 206.942 223.734 211.404 223.384 212.962C223.035 214.519 222.545 216.856 222.335 218.131C221.846 220.609 219.958 222.097 218.14 221.388C217.231 221.034 217.091 220.326 217.51 217.777C218.07 213.74 216.601 211.899 212.895 211.899C209.468 211.899 208 213.599 208 217.635C208 220.255 208.35 221.176 210.168 222.946C212.196 224.929 212.545 225 218.769 225C224.853 225 225.412 224.858 228.279 222.876C231.985 220.255 234.433 215.369 235.342 208.5C235.692 205.88 236.601 200.569 237.3 196.674C238.069 192.779 239.048 187.185 239.538 184.282C240.796 176.563 240.796 176.563 246.321 176.35C250.796 176.138 251.006 176.067 251.006 174.368C251.006 172.668 250.726 172.597 246.461 172.243L241.915 171.889L242.125 169.411C242.545 165.091 244.363 157.16 245.132 156.168C246.041 155.106 247.789 154.964 249.188 155.885C250.097 156.451 250.097 156.947 249.328 159.355C248.209 162.683 249.048 164.878 251.845 165.941C254.083 166.79 257.37 165.657 258.349 163.675C259.467 161.55 259.118 158.434 257.509 155.956C254.013 150.786 246.88 149.512 240.307 152.84Z" fill="black"/>
<path d="M65.8731 152.348C65.6625 152.557 63.4866 153.323 61.0299 153.95L56.5377 155.134L56.3271 158.617C56.2569 160.567 55.4146 166.139 54.5021 171.154C53.5896 176.1 52.3964 182.577 51.9753 185.433C51.2733 189.821 49.4484 197.134 48.0446 201.522C47.5532 202.985 51.2032 205.771 55.1338 207.095C56.7482 207.582 60.9597 208 64.9606 208C70.7864 208 72.5412 207.721 75.2786 206.398C82.4381 202.985 86.3688 196.925 86.9303 188.637C87.6322 177.841 82.9996 171.502 74.4363 171.502C71.8393 171.502 70.1547 171.99 68.049 173.244L65.2413 175.055L65.6625 171.363C65.9432 169.343 66.6452 165.303 67.2067 162.448C69.1018 153.463 69.172 152 67.6278 152C66.8557 152 66.0836 152.139 65.8731 152.348ZM72.471 176.657C76.893 180 75.2786 196.299 69.9441 201.383C67.3471 203.821 63.4866 204.726 61.5212 203.333C60.2578 202.428 60.1876 202.01 61.0299 197.552C61.451 194.905 62.1529 190.866 62.5741 188.637C63.5568 182.856 65.8731 177.91 68.049 176.726C70.2951 175.473 70.9268 175.473 72.471 176.657Z" fill="black"/>
<path d="M168.396 153.079C161.18 155.411 161.391 155.269 161.391 158.873C161.391 163.041 160.2 170.954 159.289 173.356L158.588 175.264L156.277 173.497C154.385 172.014 153.124 171.66 150.112 171.66C142.196 171.731 135.611 177.171 133.089 185.932C130.778 194.057 132.249 202.747 136.522 206.138C141.566 210.166 150.532 209.742 154.666 205.361C155.997 203.948 155.997 203.948 157.328 205.785C160.41 210.024 168.186 210.095 171.828 205.856C174.28 203.03 174.42 202.535 172.949 201.334C172.039 200.557 171.548 200.698 170.147 202.041C168.046 204.019 166.294 203.454 166.294 200.91C166.294 198.013 168.326 185.72 172.319 164.383C173.229 159.438 174 154.633 174 153.644C174 151.595 173.159 151.525 168.396 153.079ZM155.716 177.454C157.257 178.867 157.328 179.361 156.977 185.014C156.557 192.856 154.595 201.122 152.844 202.888C150.953 204.796 147.59 204.372 145.769 201.899C141.986 196.812 144.858 180.351 150.042 177.101C152.564 175.546 153.825 175.617 155.716 177.454Z" fill="black"/>
<path d="M313.652 153.571C307.804 155.594 307.663 155.733 307.663 159.359C307.663 162.427 306.888 167.726 304.14 182.579C303.365 186.623 302.45 192.062 301.956 194.781C301.534 197.431 300.547 201.196 299.843 203.149C299.138 205.031 298.786 206.844 299.138 207.193C299.42 207.472 302.52 207.681 305.902 207.541L312.102 207.332L312.313 202.103C312.454 196.594 314.638 186.762 316.399 183.415C317.033 182.23 318.513 180.487 319.711 179.51C322.67 177 325.136 177.279 326.897 180.347C328.306 182.648 328.306 182.718 326.756 191.713C324.995 201.893 325.277 204.543 328.658 206.705C331.054 208.308 337.677 208.448 340.354 206.984C342.608 205.798 344.511 202.66 343.876 201.126C343.313 199.662 342.749 199.732 340.565 201.405C338.381 203.149 336.549 202.591 336.549 200.08C336.549 199.104 337.183 195.269 337.958 191.643C339.72 183.346 339.72 181.881 337.958 177.837C335.211 171.561 328.306 169.539 322.036 173.165C320.345 174.141 318.654 175.466 318.302 176.163C316.963 178.534 316.54 176.163 317.456 171.213C318.654 164.449 319.64 158.452 320.133 154.827C320.627 151.34 320.204 151.27 313.652 153.571Z" fill="black"/>
<path d="M410.309 152.35C410.102 152.56 407.969 153.33 405.561 153.96L401.157 155.15L400.951 158.3C400.882 160.05 400.331 164.25 399.712 167.75C399.162 171.18 398.061 177.69 397.304 182.1C395.308 194.28 393.175 204.08 392.418 204.99C392.006 205.48 391.868 206.39 392.143 206.95C392.487 207.86 393.657 208 398.542 207.86L404.598 207.65L405.079 201.7C405.63 195.61 406.662 192.39 407.969 192.81C409.552 193.37 414.781 204.22 414.368 206.04C413.887 207.72 415.194 208 422.557 208C429.782 208 431.089 207.16 428.543 204.29C426.548 202.05 417.878 184.76 418.291 183.78C418.428 183.36 421.249 180.84 424.483 178.25C427.717 175.59 430.194 173.21 429.988 172.86C429.782 172.58 427.648 172.3 425.171 172.3C420.905 172.3 420.63 172.37 420.011 174.19C419.185 176.43 409.139 185.25 408.313 184.41C408.038 184.13 408.382 180.84 409.07 177.2C409.689 173.56 410.928 167.05 411.754 162.78C413.543 153.12 413.543 152 411.96 152C411.272 152 410.515 152.14 410.309 152.35Z" fill="black"/>
<path d="M449.294 153.428C446.743 154.196 444.404 155.103 444.05 155.382C443.696 155.731 443.341 157.964 443.271 160.407C443.2 162.849 442.775 166.408 442.279 168.293C441.853 170.247 440.861 175.55 440.082 180.156C439.302 184.762 438.168 191.112 437.602 194.322C435.759 204.371 438.027 208 446.105 208C450.995 208 453.617 206.674 454.963 203.464C456.309 200.324 454.963 199.277 452.199 201.301C447.806 204.511 446.955 201.929 449.223 192.229C449.932 189.019 450.782 184.692 450.995 182.598C451.278 180.505 452.058 175.62 452.837 171.782C455.176 159.779 456.239 153.01 455.955 152.451C455.459 151.684 454.609 151.823 449.294 153.428Z" fill="black"/>
<path d="M359.287 156.906C355.042 158.957 354.896 163.785 358.921 166.166C364.63 169.54 371.144 161.867 366.314 157.568C364.338 155.715 362.142 155.517 359.287 156.906Z" fill="black"/>
<path d="M381.897 157.182C377.928 159.375 378.072 165.156 382.114 166.618C384.857 167.548 387.888 166.75 389.548 164.558C391.93 161.435 391.352 158.444 388.032 156.916C385.434 155.654 384.568 155.654 381.897 157.182Z" fill="black"/>
<path d="M12.3936 173.551C9.86629 174.74 7.90058 176.559 4.53079 180.827C3.40752 182.157 1.58222 188.314 1.16099 191.812C-0.594108 206.225 12.3234 213.922 24.1879 205.526C25.0304 204.896 25.6622 205.106 27.0663 206.505C30.5765 210.004 38.6499 209.654 41.6687 205.806C44.4769 202.237 42.441 199.089 39.2818 202.027C36.4034 204.756 35.0695 203.427 35.7716 198.389C36.8246 190.902 39.0712 179.848 39.9838 177.749C40.5454 176.419 40.9667 175.23 40.9667 175.16C40.9667 174.67 36.1928 173.411 32.823 172.991C29.5234 172.571 29.1724 172.711 28.8214 174.04L28.4704 175.58L25.8026 173.761C22.503 171.522 16.7463 171.382 12.3936 173.551ZM24.89 177.539C26.4344 178.798 26.5748 179.358 26.4344 184.256C26.2238 192.372 24.3985 200.348 22.152 202.937C21.5202 203.706 20.1161 204.196 18.7822 204.196C17.0271 204.196 16.1144 203.706 14.921 202.027C11.2002 196.78 14.3593 180.198 19.7651 177.329C22.2924 175.93 22.9242 175.93 24.89 177.539Z" fill="black"/>
<path d="M105.344 173.752C101.288 175.716 98.1938 178.801 95.7875 183.57C94.275 186.445 94 187.917 94 192.686C94 198.787 94.8938 201.101 98.675 205.238C102.456 209.306 112.013 210.287 117.994 207.132C121.156 205.519 124.388 201.802 124.113 200.189C123.838 198.647 121.638 198.366 120.263 199.699C118.544 201.241 114.006 202.083 111.325 201.382C107.819 200.47 106.375 197.384 106.375 190.933C106.375 186.725 106.719 184.972 108.094 182.097C110.225 177.749 113.594 175.575 116.275 176.838C117.856 177.539 117.925 177.889 117.581 181.396C117.1 185.954 118.269 187.497 122.119 187.497C125.488 187.497 127 185.814 127 182.027C127 173.892 114.9 169.264 105.344 173.752Z" fill="black"/>
<path d="M194.293 172.808C193.293 173.221 191.508 173.977 190.295 174.458C187.438 175.626 183.083 180.231 181.369 183.943C179.655 187.655 179.513 196.521 181.155 199.683C184.368 205.801 188.367 208 196.15 208C201.076 208 202.362 207.725 205.218 206.144C208.645 204.22 211.43 201.333 211.43 199.683C211.43 197.965 209.216 197.896 206.36 199.408C203.29 201.058 198.934 201.47 196.578 200.233C195.221 199.546 192.865 196.178 192.865 194.941C192.865 194.666 194.222 194.666 195.935 194.872C199.863 195.353 207.146 193.91 209.859 191.985C213.929 189.236 215 187.311 215 182.912C215 178.307 213.144 175.626 208.502 173.358C205.432 171.846 197.435 171.502 194.293 172.808ZM203.29 177.07C204.361 177.894 204.647 178.857 204.647 182.087C204.575 187.38 202.504 190.198 198.149 190.885C193.865 191.573 192.08 190.473 192.651 187.586C193.365 183.668 196.435 178.238 198.434 177.138C200.862 175.901 201.576 175.901 203.29 177.07Z" fill="black"/>
<path d="M267.963 173.848C261.724 177.126 257.842 184.726 257.773 193.722C257.773 200.067 258.882 203.066 262.21 206.064C265.191 208.644 269.35 209.481 274.411 208.365C276.352 207.947 278.085 207.598 278.223 207.598C279.125 207.598 278.431 212.131 277.183 214.78C275.728 217.918 272.469 220.15 269.35 220.15C267.062 220.15 264.636 218.197 264.775 216.454C265.052 213.386 264.636 212.479 262.695 211.433C258.813 209.481 255.069 212.131 255 216.942C255 219.104 255.416 220.08 257.426 221.963C260.338 224.682 263.735 225.38 271.984 224.822C276.975 224.543 278.154 224.194 280.927 222.311C287.097 217.988 289.107 213.246 292.019 195.604C293.058 189.607 294.376 182.913 294.93 180.682C296.594 174.406 296.733 174.615 292.296 173.709C290.147 173.29 287.859 172.733 287.235 172.523C286.611 172.244 285.78 172.733 285.086 173.779L284.046 175.452L281.551 173.709C278.085 171.408 272.539 171.408 267.963 173.848ZM280.234 176.986C281.551 177.614 282.105 178.52 282.383 180.682C283.215 186.33 280.511 200.625 278.154 203.066C276.352 204.809 273.371 204.39 271.36 201.95C269.766 200.067 269.558 199.23 269.558 194.489C269.558 186.958 272.4 179.078 275.728 177.265C277.946 176.01 278.085 176.01 280.234 176.986Z" fill="black"/>
<path d="M483.662 173.192C482.541 173.753 480.72 175.086 479.67 176.068L477.709 177.891V175.296C477.709 172.351 477.359 172.21 472.386 173.823C464.823 176.278 465.103 175.998 465.103 179.855C465.103 184.343 462.512 199.422 460.901 204.05C460.201 206.014 459.85 207.837 460.061 208.048C460.691 208.679 471.686 208.539 472.737 207.837C473.297 207.487 473.507 206.715 473.157 205.733C472.526 203.629 474.698 190.725 476.448 186.167C478.059 182.029 481.491 178.312 483.662 178.312C484.432 178.382 485.693 178.803 486.463 179.434C487.654 180.346 487.864 181.257 487.794 185.535C487.654 190.795 486.113 199.351 484.362 204.401C483.872 206.014 483.522 207.557 483.732 207.907C484.152 208.609 495.287 208.609 496.268 207.907C496.688 207.627 497.038 204.962 497.108 202.016C497.318 196.266 499.349 186.798 501.1 183.291C502.431 180.837 505.722 178.312 507.683 178.312C509.574 178.312 512.025 181.538 512.025 183.922C512.025 184.974 511.535 188.481 510.905 191.707C508.804 202.928 509.784 207.136 514.967 208.469C519.239 209.661 523.511 208.819 526.032 206.224C529.394 202.858 528.133 199.141 524.631 202.157C520.709 205.523 520.219 203.559 521.97 191.917C523.301 183.361 523.301 182.66 522.18 179.224C520.709 174.455 517.488 172 512.656 172C508.454 172 505.722 173.403 502.221 177.4C500.68 179.153 499.349 180.486 499.209 180.346C499.139 180.205 498.509 178.873 497.809 177.4C497.178 175.998 495.637 174.174 494.377 173.403C491.576 171.719 486.603 171.579 483.662 173.192Z" fill="black"/>
<path d="M358.263 173.783L352.891 175.502L352.819 180.302C352.748 183.024 351.96 188.683 351.1 192.909C349.381 201.505 349.596 203.583 352.318 206.448C355.899 210.173 364.639 209.743 367.504 205.66C370.297 201.792 368.936 199.5 365.426 202.007C362.633 204.013 360.842 202.938 361.343 199.571C361.845 196.419 364.495 181.591 365.355 177.007C365.785 174.929 366.143 172.852 366.143 172.565C366.143 171.563 364.065 171.849 358.263 173.783Z" fill="black"/>
<path d="M382.786 173.979C375.834 176.066 375.347 176.344 375.834 178.501C376.112 179.545 375.625 183.858 374.861 187.962C371.037 208.693 369.925 215.093 369.925 216.414C369.925 217.18 369.299 218.432 368.534 219.127C367.074 220.449 367.213 220.588 365.406 215.51C365.267 215.023 364.015 214.467 362.625 214.188C357.48 213.214 354.004 218.919 357.272 222.954C358.454 224.414 359.427 224.693 363.529 224.901C367.63 225.18 369.021 224.901 371.732 223.649C377.711 220.727 381.674 214.327 382.786 205.91C382.994 203.962 383.829 199.301 384.524 195.475C386.54 184.762 388 175.927 388 174.327C388 172.658 387.513 172.588 382.786 173.979Z" fill="black"/>
<path d="M269.959 233.236C269.743 233.445 267.662 234.073 265.366 234.701C260.343 235.957 259.052 236.795 259.626 238.54C260.056 239.726 258.98 249.009 258.119 251.87C257.904 252.638 257.042 253.126 256.11 253.126C252.665 253.126 251.732 256.965 255.105 257.453C257.042 257.733 257.042 258.012 255.392 266.945C252.378 283.695 254.818 289.069 265.366 288.999C269.456 288.999 270.891 288.65 273.044 287.255C276.273 285.231 277.852 282.23 276.489 280.694C275.699 279.787 275.34 279.787 273.116 280.694C271.681 281.252 269.672 281.741 268.595 281.741C265.582 281.741 264.72 280.206 265.294 275.948C265.94 270.784 268.595 258.43 269.169 257.872C269.456 257.593 271.753 257.314 274.336 257.174C278.785 256.965 279 256.895 279 255.22C279 253.545 278.785 253.475 274.695 253.266C272.327 253.126 270.102 252.777 269.815 252.498C269.528 252.219 269.887 249.357 270.676 246.077C272.614 237.912 272.901 233.305 271.466 233.026C270.82 232.956 270.174 233.026 269.959 233.236Z" fill="black"/>
<path d="M23.5161 253.702C22.1308 254.609 20.6763 255.866 20.1222 256.495C18.6676 258.241 17.7672 257.822 18.1828 255.517C18.4599 254.4 18.3213 253.283 17.9057 253.073C17.1439 252.584 10.356 254.4 7.58548 255.797C6.33873 256.425 5.92315 257.124 6.06168 258.45C6.20021 260.057 5.16125 267.529 3.49893 276.817C3.15261 278.703 2.32145 281.845 1.69807 283.731C1.00544 285.756 0.797648 287.362 1.21323 287.782C1.55955 288.131 4.46862 288.34 7.65474 288.201L13.4729 287.991L13.6114 284.499C13.8885 278.354 16.4512 266.691 18.2521 263.548C21.2997 258.381 24.8321 256.984 27.6026 259.987C28.9879 261.453 29.1264 262.222 28.8494 266.132C28.7109 268.507 28.1568 273.116 27.6719 276.259C26.7715 281.496 26.8408 282.264 27.8797 284.499C30.3732 289.737 38.6848 290.575 43.464 286.105C45.0571 284.499 45.6112 280.658 44.1566 280.658C43.7411 280.658 42.6328 281.357 41.8017 282.125C40.832 283.033 39.793 283.452 39.0311 283.172C38.0615 282.823 37.9229 282.055 38.3385 277.655C38.6156 274.932 39.1697 271.3 39.5852 269.624C40.4857 265.993 40.0701 260.126 38.6848 257.263C36.2606 252.165 28.5723 250.349 23.5161 253.702Z" fill="black"/>
<path d="M66.7643 252.774C65.7909 253.199 64.0527 253.977 62.8012 254.473C59.2553 256.1 54.4578 261.619 53.1368 265.652C50.9119 272.373 52.0243 280.227 55.8484 284.33C58.9076 287.726 62.5231 289 68.5026 289C75.1773 288.929 79.0013 287.443 83.6597 283.127C93.4632 273.93 91.586 257.798 80.1833 252.987C77.3327 251.784 69.3369 251.642 66.7643 252.774ZM74.621 256.949C79.2099 259.071 78.7927 274.142 73.8562 281.288C72.1876 283.764 71.5618 284.118 69.2674 284.118C67.112 284.118 66.2776 283.694 65.1652 282.137C63.2184 279.519 63.2879 271.949 65.3738 265.439C66.9729 260.274 67.6682 259.142 70.2408 257.373C72.2571 255.958 72.4657 255.958 74.621 256.949Z" fill="black"/>
<path d="M114.443 253.416C111.726 255.114 110.82 255.185 110.82 253.769C110.82 252.425 110.541 252.425 105.873 253.84C98.2787 256.034 98.4181 255.893 98.4181 260.422C98.4181 262.616 98.0697 265.66 97.7213 267.217C97.3033 268.774 96.8156 271.605 96.5369 273.586C96.3279 275.497 95.5614 280.31 94.795 284.203C94.0983 288.095 93.1229 293.333 92.7048 295.88C92.2868 298.428 91.4507 301.189 90.8933 302.038C89.0818 304.94 89.5695 305.152 96.6762 304.94L103.504 304.727L103.295 302.179C103.086 299.844 104.898 288.237 105.525 287.529C105.664 287.387 107.267 287.812 109.008 288.378C112.84 289.723 114.443 289.794 119.111 288.732C121.898 288.166 123.431 287.175 126.357 284.344C129.492 281.23 130.398 279.815 131.722 275.568C135.624 262.899 130.259 252 120.156 252C117.996 252 115.906 252.495 114.443 253.416ZM118.554 257.591C120.156 258.865 120.226 259.431 120.226 267.004C120.226 274.011 120.017 275.427 118.554 278.399C116.742 282.292 113.677 284.556 110.472 284.556C106.221 284.556 105.873 282.929 108.103 271.746C109.914 262.192 110.75 259.998 113.119 257.945C115.488 255.893 116.463 255.822 118.554 257.591Z" fill="black"/>
<path d="M150.757 253.553C146.848 255.505 145.103 257.317 142.52 261.779C140.566 265.195 140.287 266.31 140.077 272.236C139.868 278.091 140.007 279.207 141.473 281.995C144.335 287.502 150.408 290.012 157.11 288.339C158.925 287.851 160.53 287.712 160.74 287.921C160.949 288.13 160.809 290.361 160.39 292.94C159.064 301.793 161.438 305 169.046 305C173.304 305 173.723 304.861 175.957 302.63C177.283 301.305 178.33 299.772 178.33 299.144C178.33 297.471 176.376 296.983 174.91 298.308C173.374 299.702 171.42 299.772 170.931 298.377C170.303 296.844 177.353 258.502 178.47 257.108C179.936 255.296 178.4 254.25 173.374 253.413C168.488 252.577 168.209 252.577 167.301 253.971C166.394 255.365 166.394 255.365 163.881 253.692C160.6 251.531 154.806 251.392 150.757 253.553ZM163.043 257.526C164.579 258.781 164.718 259.339 164.649 264.776C164.509 274.536 161.996 283.111 159.064 283.808C156.481 284.435 155.085 283.877 153.41 281.368C149.641 275.861 152.642 260.175 157.947 257.317C160.46 255.923 161.089 255.923 163.043 257.526Z" fill="black"/>
<path d="M192.517 254.138L186.79 255.94L186.289 261.068C185.645 268.136 183.139 280.886 181.779 284.074C181.206 285.529 180.848 286.984 181.063 287.33C181.564 288.162 192.875 288.231 193.949 287.469C194.379 287.192 194.737 284.697 194.808 281.925C195.023 272.848 197.743 263.216 200.893 260.652C203.757 258.296 204.759 258.435 206.835 261.691C208.482 264.186 208.911 264.463 211.489 264.463C213.994 264.463 214.567 264.117 215.856 262.176C217.789 259.197 217.216 255.663 214.567 253.584C211.202 250.951 204.33 251.713 201.538 255.039C200.178 256.633 199.318 256.425 199.318 254.485C199.318 253.515 199.104 252.683 198.817 252.544C198.459 252.406 195.667 253.099 192.517 254.138Z" fill="black"/>
<path d="M228.324 253.385C222.651 255.903 219.885 261.357 221.516 266.742C222.367 269.679 225.133 272.336 229.671 274.574C234.068 276.742 237.188 279.26 237.188 280.658C237.188 282.896 234.777 284.295 230.948 284.364C226.551 284.364 225.842 284.015 225.842 281.427C225.842 278.56 224.069 277.092 220.949 277.371C217.403 277.651 216.056 280.308 217.687 283.735C219.105 286.812 221.942 288.35 227.047 288.84C240.237 290.239 249.456 282.267 245.485 272.826C244.208 269.959 243.286 269.19 236.195 265.343C231.94 262.966 230.38 261.707 230.238 260.588C229.884 258.42 231.16 257.092 234.068 256.532C237.046 255.973 238.606 257.092 238.606 259.819C238.606 263.595 244.35 264.504 246.336 261.008C247.825 258.49 246.761 255.763 243.641 253.665C240.521 251.567 232.649 251.427 228.324 253.385Z" fill="black"/>
<path d="M318.407 253.427C310.25 255.03 310.888 254.472 310.392 260.116C309.399 271.89 307.129 278.648 303.298 281.086C300.532 282.898 297.482 282.619 296.063 280.459C294.928 278.857 294.928 278.021 295.708 271.96C296.205 268.267 297.056 263.181 297.623 260.673C298.12 258.165 298.617 255.378 298.617 254.542C298.617 252.939 298.475 252.87 294.928 253.357C292.871 253.636 289.962 254.124 288.473 254.472C286.132 255.099 285.777 255.378 286.132 256.702C286.345 257.538 285.848 262.554 285.068 267.919C283.366 278.857 283.649 282.619 286.274 285.754C289.324 289.238 295.779 290.074 300.745 287.496C301.738 287.008 303.511 285.615 304.788 284.361L307.058 282.201L308.264 284.709C309.753 287.914 311.456 288.75 316.35 288.82C321.032 288.889 323.444 287.844 325.146 284.988C327.274 281.435 325.075 279.345 322.38 282.271C320.819 284.012 320.11 284.012 319.329 282.41C318.62 281.226 319.117 276.418 320.606 268.685C322.592 258.722 323.231 253.985 322.805 253.357C322.521 252.87 321.103 252.87 318.407 253.427Z" fill="black"/>
<path d="M334.068 253.961C333.86 254.51 334.138 255.677 334.763 256.569C335.319 257.462 336.153 260.207 336.5 262.61C338.515 275.583 340.877 286.977 341.641 287.458C343.03 288.35 352.27 288.075 353.104 287.114C353.798 286.291 355.327 283.408 363.177 268.787C365.47 264.463 368.387 259.452 369.707 257.599C370.958 255.814 372 254.03 372 253.686C372 253.275 370.402 253 368.526 253C365.331 253 364.983 253.137 364.289 254.853C363.594 256.844 358.87 266.11 354.424 274.416C351.436 279.907 350.95 279.633 349.769 271.876C349.352 268.856 348.519 264.051 347.963 261.168C347.407 258.285 346.99 255.677 347.06 255.334C347.476 253.206 346.851 253 340.738 253C335.944 253 334.346 253.206 334.068 253.961Z" fill="black"/>
<path d="M374.071 253.618C373.858 254.029 374.141 255.059 374.708 255.951C375.345 256.843 376.124 260.48 376.548 264.255C376.902 267.961 377.398 271.598 377.539 272.422C377.752 273.245 378.247 276.882 378.743 280.451C379.238 284.02 379.946 287.176 380.371 287.451C380.796 287.725 383.274 288 385.822 288C389.433 288 390.778 287.725 391.627 286.765C392.335 286.078 392.831 285.324 392.831 285.049C392.831 284.637 394.884 280.108 398.282 273.108C399.698 270.157 401.326 267.961 401.326 268.922C401.397 271.392 403.45 286.833 403.804 287.314C404.016 287.657 406.423 288 409.184 288C413.148 288 414.352 287.725 415.484 286.627C416.263 285.873 416.9 284.98 416.9 284.637C416.9 284.02 423.767 269.745 428.369 260.686C429.643 258.284 431.271 255.882 432.05 255.333C434.174 253.892 432.616 252.863 428.581 253.137C425.254 253.343 425.183 253.412 424.333 256.225C423.555 258.696 418.67 269.127 415.909 274.137C414.776 276.196 413.785 276.402 413.573 274.618C412.299 260.069 411.591 254.578 411.024 253.824C410.67 253.343 408.759 253 406.706 253C404.653 253 402.529 253.412 401.963 253.824C401.326 254.304 399.839 257.049 398.565 259.863C391.556 275.304 391.273 275.853 390.353 275.922C389.999 275.99 389.574 275.029 389.503 273.931C389.433 272.765 388.937 268.922 388.512 265.353C388.017 261.784 387.592 257.598 387.592 256.088L387.521 253.343L381.008 253.137C377.185 253 374.354 253.206 374.071 253.618Z" fill="black"/>
<path d="M434.895 253.687C434.685 254.031 435.035 254.924 435.737 255.68C436.438 256.436 438.542 260.009 440.436 263.583L443.802 270.18L440.436 274.097C438.542 276.296 434.965 280.144 432.51 282.687C427.601 287.841 427.741 288.253 433.562 287.909C436.368 287.772 436.999 287.428 437.35 286.26C437.7 284.748 445.486 275.677 446.397 275.677C447.169 275.746 450.886 283.855 450.956 285.779L451.026 287.703L458.32 287.909C462.318 287.978 465.965 287.772 466.316 287.428C466.737 287.016 466.316 285.917 465.264 284.473C464.282 283.237 462.318 279.869 460.845 277.052C459.372 274.234 457.9 271.623 457.619 271.211C457.268 270.867 456.988 270.18 456.988 269.63C456.988 268.462 465.194 258.635 468.28 256.161C469.472 255.199 470.173 254.1 469.963 253.687C469.753 253.344 467.789 253 465.755 253C462.038 253 461.897 253.069 460.915 255.405C459.934 257.673 455.164 263.308 454.182 263.308C453.481 263.308 449.974 256.024 449.974 254.512C449.974 253.069 449.694 253 442.68 253C438.612 253 435.105 253.275 434.895 253.687Z" fill="black"/>
<path d="M474.698 254.117C474.698 254.675 475.049 255.862 475.541 256.699C476.243 258.095 479.405 269.891 481.021 277.43C481.372 279.174 482.356 282.874 483.129 285.736L484.534 290.901L481.934 295.298C479.194 299.974 477.508 301.37 477.508 298.997C477.508 298.23 476.665 296.834 475.681 295.787C474.206 294.321 473.433 294.111 471.325 294.46C469.92 294.67 468.304 295.368 467.882 296.066C466.548 297.811 466.758 301.44 468.304 303.325C469.498 304.86 470.201 305 475.049 305H480.459L483.48 301.719C485.096 299.905 487.063 297.252 487.836 295.787C490.576 290.482 495.986 280.57 496.478 279.872C496.829 279.454 499.007 275.405 501.396 270.799C506.595 260.887 508.422 258.026 510.459 256.211C513.129 253.838 512.356 252.93 507.93 253.14C504.276 253.349 503.855 253.489 503.644 254.954C503.504 255.792 502.309 258.514 500.904 260.887C499.569 263.26 497.321 267.309 495.986 269.891C494.651 272.544 493.316 274.638 493.035 274.638C492.754 274.638 492.192 273.311 491.77 271.636C489.382 262.423 488.047 256.42 488.047 254.815V253H481.372C475.751 253 474.698 253.209 474.698 254.117Z" fill="black"/>
<path d="M513.416 255.203C511.439 258.37 511.509 260.229 513.628 259.471C515.535 258.852 528.249 258.232 528.249 258.783C528.249 259.058 523.234 265.117 517.16 272.345C511.015 279.574 506 285.977 506 286.596C506 287.629 507.554 287.766 520.833 287.973C529.026 288.042 536.301 287.973 537.148 287.835C538.067 287.56 539.055 286.39 539.762 284.531C541.104 281.295 540.539 279.987 538.208 281.157C536.301 282.19 523.658 283.016 523.093 282.19C522.81 281.639 529.52 273.103 536.583 265.048C542.516 258.301 545.2 254.79 544.988 254.102C544.847 253.62 540.044 253.275 529.803 253.138L514.829 253L513.416 255.203Z" fill="black"/>
<path d="M256.823 312.45C243.972 316.606 235.048 324.706 229.979 336.822C227.694 342.457 227.266 353.093 229.336 357.038C232.692 363.659 238.832 366.758 246.899 365.843C254.538 364.927 260.606 360.841 263.748 354.361C269.316 342.809 264.105 332.102 253.11 332.173C250.254 332.243 248.184 332.666 246.399 333.722C244.971 334.568 243.615 335.131 243.401 334.92C242.83 334.356 245.328 328.862 247.399 326.185C249.755 323.156 257.037 317.803 259.607 317.24C260.606 317.028 262.248 316.253 263.248 315.549C264.676 314.422 264.819 314.07 264.033 313.084C263.105 312.027 259.25 311.604 256.823 312.45ZM251.611 337.667C254.324 339.498 255.038 343.795 253.61 349.571C252.111 355.699 250.968 357.883 248.684 359.433C245.471 361.475 242.33 360.771 240.759 357.672C238.189 352.882 240.545 341.964 244.757 338.371C247.256 336.329 249.398 336.117 251.611 337.667Z" fill="black"/>
<path d="M331.398 312.216C317.791 315.693 312.32 327.684 320.246 336.553C321.508 338.043 322.631 339.462 322.631 339.746C322.631 339.959 321.228 340.81 319.474 341.662C311.058 345.706 308.252 355.711 314.074 361.316C317.721 364.722 321.649 365.999 328.943 365.999C342.971 366.07 351.388 359.968 351.388 349.751C351.388 345.352 350.756 343.862 347.179 340.03L344.795 337.334L348.722 333.786C353.422 329.529 354.895 325.697 353.492 321.227C351.598 315.267 346.758 312.358 338.412 312.074C335.326 311.932 332.17 312.003 331.398 312.216ZM341.849 318.885C343.953 321.014 343.813 325.697 341.638 328.961C339.043 332.793 337.711 333.431 334.905 332.083C329.925 329.671 327.681 324.775 329.715 320.801C331.819 316.757 338.692 315.693 341.849 318.885ZM333.993 345.777C337.921 348.332 339.464 350.46 339.464 353.369C339.464 359.897 329.925 363.942 324.805 359.613C320.807 356.208 321.298 349.964 325.857 345.848C328.873 343.223 329.925 343.152 333.993 345.777Z" fill="black"/>
<path d="M17.1192 329.237C9.71576 330.284 3.22892 336.219 1.04314 343.899C-2.97588 358.142 4.99165 368.125 18.5294 365.612C23.5355 364.704 26.6379 362.889 29.8814 358.979C34.4645 353.464 36.2272 345.155 34.1119 338.872C31.7146 331.331 25.9329 328.05 17.1192 329.237ZM22.1959 334.403C25.2278 336.638 22.901 354.511 18.8819 359.468C16.9077 362.051 13.1707 362.121 12.0426 359.608C10.2093 355.698 11.972 342.433 14.9334 337.615C17.4718 333.426 19.5165 332.518 22.1959 334.403Z" fill="black"/>
<path d="M79.4418 329.182C71.6884 329.873 64.0746 335.884 64.0746 341.273C64.0746 345.281 67.4275 347.285 70.9899 345.419C73.7839 344.037 74.6919 342.241 74.1331 339.062C73.6442 335.884 75.1111 334.157 78.9528 333.535C84.1218 332.706 87.1254 334.64 87.1254 338.786C87.1254 342.793 84.6108 344.659 71.7582 349.979C63.2364 353.572 59.674 357.165 60.0233 362.002L60.2328 364.766L75.2508 364.973C83.4931 365.042 90.8973 364.973 91.6657 364.835C93.1325 364.42 96.206 358.478 96.206 355.991C96.206 354.816 95.9266 354.678 94.6693 355.161C92.5039 355.921 71.0597 356.336 71.0597 355.645C71.0597 354.954 82.6549 351.292 84.6806 351.292C85.3791 351.292 88.1731 350.187 90.8973 348.943C96.6251 346.179 99 343.346 99 339.27C99 332.084 91.3164 328.076 79.4418 329.182Z" fill="black"/>
<path d="M120.261 329.22C112.686 329.984 107.056 334.43 106.569 340.127C106.152 344.157 107.264 345.477 111.018 345.407C114.701 345.268 116.091 343.601 116.091 339.224C116.091 336.237 116.369 335.333 117.62 334.5C121.234 331.999 126.794 334.013 127.42 338.112C128.532 344.921 125.543 348.533 116.995 350.757C114.493 351.382 114.006 351.799 114.006 353.188C114.006 354.647 114.493 354.925 117.968 355.62C123.667 356.87 125.821 359.302 125.821 364.651C125.821 371.46 122.346 375.906 115.883 377.435C113.52 377.99 108.932 376.809 107.681 375.35C106.917 374.447 106.986 373.891 107.959 372.155C110.323 368.056 108.724 364.651 104.415 364.651C97.3954 364.651 97.1174 374.586 104.067 379.171C107.82 381.673 111.574 382.298 119.149 381.881C125.474 381.464 127.906 380.491 132.146 376.67C136.107 373.058 136.941 371.112 136.941 365.068C136.941 360.483 136.733 359.649 135.134 357.704C134.092 356.523 132.354 355.064 131.242 354.508C129.574 353.675 129.366 353.258 130.061 352.424C130.478 351.868 131.451 351.451 132.076 351.451C133.883 351.451 138.192 346.102 138.748 343.323C139.791 337.765 137.567 333.249 132.632 330.818C129.296 329.15 125.891 328.664 120.261 329.22Z" fill="black"/>
<path d="M373.465 329.216C362.353 330.605 353.859 342.752 356.478 353.371C358.389 361.354 368.015 364.894 375.447 360.451C377.57 359.133 377.712 359.133 377.712 360.313C377.712 362.742 374.102 368.711 370.704 371.765C368.864 373.501 365.396 375.791 362.99 376.832C359.451 378.498 358.601 379.123 358.601 380.511C358.601 382.108 358.743 382.177 363.06 381.83C374.456 380.928 386.205 370.794 391.16 357.675C393.425 351.706 393.637 341.294 391.584 337.546C387.975 330.882 382.1 328.175 373.465 329.216ZM377.995 334.839C380.26 335.88 381.463 338.795 381.392 342.89C381.251 347.888 379.835 352.539 377.499 355.246C375.871 357.258 375.022 357.675 372.828 357.675C369.997 357.675 368.51 356.009 367.519 351.844C366.387 347.402 370.067 336.852 373.394 335.116C375.659 333.867 375.801 333.867 377.995 334.839Z" fill="black"/>
<path d="M46.2244 331.308C40.1019 333.323 37.3885 335.129 40.3802 335.129C42.6066 335.129 44.9025 337.769 44.4851 339.853C44.2763 340.895 43.6502 344.993 42.9544 349.022C41.9804 355.552 40.0323 360.832 38.6409 360.832C38.3626 360.832 37.1102 361.457 35.7883 362.291C33.9098 363.402 33.6316 363.889 34.3969 364.375C35.7188 365.208 56.3822 365.208 56.9388 364.375C57.1475 363.958 56.7996 363.263 56.243 362.777C52.2078 359.443 52.2078 359.581 52.7643 354.302C52.9731 351.593 53.9471 345.479 54.9211 340.756C57.1475 329.432 57.0779 328.877 54.7124 329.016C53.5992 329.016 49.8422 330.058 46.2244 331.308Z" fill="black"/>
<path d="M162.116 337.519C158.565 341.595 154.73 345.951 153.664 347.146C147.414 353.962 141.447 361.481 141.092 362.886C140.879 363.941 141.021 364.784 141.661 365.205C142.229 365.557 147.201 365.838 152.812 365.838C158.352 365.838 162.898 366.119 162.898 366.47C162.898 368.227 160.554 378.205 159.986 378.768C159.63 379.189 159.346 380.032 159.346 380.735C159.346 381.859 160.057 382 165.739 382H172.131V378.416C172.131 376.378 172.486 372.795 172.984 370.335L173.765 365.838H176.322C179.589 365.838 180.299 365.276 180.868 362.535C181.365 360.005 180.512 359.022 177.458 358.67C175.114 358.459 174.972 357.686 176.464 351.081C177.884 344.546 179.873 331.124 179.518 330.562C179.305 330.281 176.748 330 173.907 330H168.651L162.116 337.519ZM165.952 349.535L164.176 358.811H157.5C153.806 358.811 150.823 358.6 150.823 358.389C150.823 357.265 166.946 339.416 167.514 339.908C167.656 340.119 166.946 344.405 165.952 349.535Z" fill="black"/>
<path d="M196.255 330.868C195.551 331.77 191.191 342.453 191.191 343.355C191.191 343.632 190.418 345.505 189.503 347.517C185.776 355.703 186.55 358.131 192.176 355.633C194.004 354.87 197.169 354.038 199.208 353.83C206.1 353.136 209.476 356.466 209.476 363.819C209.476 373.184 202.303 379.428 194.075 377.208C190.699 376.306 189.996 374.641 191.543 371.658C193.442 368.051 191.402 364.721 187.323 364.721C180.783 364.721 180.08 373.739 186.269 378.873C189.363 381.44 193.371 382.272 200.685 381.925C207.999 381.509 212.781 379.497 216.578 375.266C219.673 371.797 220.728 368.883 220.728 363.681C220.728 356.674 217.915 352.304 211.656 349.737C208.21 348.349 201.318 348.558 197.591 350.153C195.903 350.916 194.426 351.541 194.286 351.541C193.512 351.541 194.286 348.627 196.114 344.603L198.153 340.094L208.632 339.747C217.493 339.47 219.391 339.192 220.587 338.152C222.345 336.556 223.681 331.839 222.626 330.799C221.501 329.689 197.239 329.758 196.255 330.868Z" fill="black"/>
<path d="M272.947 330.746C272.456 331.239 272.105 332.154 272.105 332.787C272.105 333.421 271.614 334.9 271.053 335.956C270.491 337.082 270 338.561 270 339.335C270 340.391 270.281 340.532 271.614 340.039C274 339.194 299.474 338.842 299.474 339.687C299.474 340.109 298.492 340.954 297.299 341.588C294.702 342.926 283.263 354.261 281.86 356.795C281.298 357.781 279.755 360.456 278.351 362.709C275.263 367.849 272.105 376.368 272.105 379.606V382H277.298C281.72 382 282.562 381.789 282.913 380.733C283.053 380.099 283.895 377.142 284.737 374.256C288.035 362.78 296.106 350.177 306.492 340.25C311.545 335.322 312.176 334.548 311.966 332.506L311.755 330.253L292.807 330.042C278.632 329.901 273.579 330.112 272.947 330.746Z" fill="black"/>
<path d="M26.5326 390.281C26.1845 391.046 25.8364 392.439 25.8364 393.414C25.8364 394.945 25.4187 395.224 21.8681 395.92C13.3744 397.66 8.0833 402.325 6.76052 409.079C5.71622 414.788 9.1276 420.079 16.7162 424.256C22.9124 427.668 25.6972 429.896 26.9503 432.193C29.387 436.927 26.8807 442.358 21.6592 443.75C17.1339 444.934 11.1466 443.89 9.68456 441.662C9.4757 441.244 9.68456 440.06 10.2415 439.016C11.6339 436.162 11.4251 433.794 9.68456 432.541C6.27318 430.104 1.81751 431.915 1.12131 435.883C0.216248 440.478 4.46306 445.421 10.9377 447.44L15.0453 448.694V451.687C15.0453 454.124 15.3238 454.751 16.3681 454.96C17.9693 455.308 19.5706 453.358 19.5706 451.13C19.5706 450.225 19.9883 449.39 20.4757 449.25C20.8934 449.111 23.3997 448.485 25.9756 447.928C36.2794 445.491 40.8743 439.295 39.4123 429.687C38.7161 424.883 33.5642 419.731 25.1402 415.414C21.1719 413.395 18.1782 410.123 18.1782 407.756C18.1782 402.882 21.5896 400.097 27.5769 400.097C32.7984 400.097 33.4946 401.211 31.7541 406.781C31.0579 408.939 33.4946 411.446 36.2098 411.376C39.4123 411.306 41.3616 408.87 40.9439 405.597C40.4566 401.768 38.7161 399.749 33.8427 397.382C29.5262 395.224 29.4566 395.154 30.0136 393.065C30.3617 391.951 30.4313 390.489 30.2224 389.932C29.6655 388.54 27.368 388.749 26.5326 390.281Z" fill="black"/>
<path d="M331.198 391.474C330.711 391.757 330.223 392.745 330.084 393.734C329.945 394.864 329.458 395.428 328.832 395.217C328.275 395.075 327.023 394.864 326.048 394.864C323.474 394.793 323.265 397.405 325.77 398.606C327.51 399.382 327.51 399.524 326.466 400.724C324.03 403.407 326.188 406.373 328.832 403.972C330.223 402.701 331.615 403.054 331.615 404.678C331.615 406.09 333.424 406.443 334.886 405.384C335.929 404.537 335.999 404.184 335.303 402.983C334.12 401.077 334.19 400.795 335.651 400.795C336.416 400.795 337.53 400.23 338.156 399.453C339.269 398.253 339.269 398.041 338.226 396.982C337.46 396.205 336.486 395.993 335.303 396.276C333.633 396.699 333.564 396.629 333.981 394.934C334.259 393.734 334.051 392.745 333.285 392.039C332.033 390.768 332.172 390.768 331.198 391.474Z" fill="black"/>
<path d="M60.2436 395.629C52.9826 396.957 47.0611 401.5 46.1447 406.323C45.2987 410.656 48.2595 413.452 52.4892 412.263C55.3089 411.425 56.3664 409.887 56.3664 406.323C56.3664 402.618 58.1287 401.151 62.4994 401.151C67.9274 401.151 70.4652 403.387 70.4652 408.21C70.4652 411.355 69.4783 412.823 62.7109 419.323C57.0713 424.704 56.4369 425.543 56.0139 428.618C55.4499 432.183 56.2959 434 58.4107 434C59.9616 434 62.7109 431.134 62.7109 429.527C62.7109 427.919 66.7995 424.005 70.5357 421.978C72.1571 421.07 74.2719 419.952 75.1884 419.392C78.7131 417.505 82.3083 413.312 82.8018 410.376C84.0707 402.758 79.2065 397.446 69.4078 395.629C64.8257 394.79 65.1077 394.79 60.2436 395.629Z" fill="black"/>
<path d="M105.086 395.459C98.7487 396.854 93.6082 400.273 91.2844 404.599C88.9605 408.995 90.9323 416.043 94.8757 417.857C96.6362 418.624 96.6362 418.694 92.4815 420.997C87.2001 423.927 84.4537 427.207 83.3975 431.672C81.8482 438.231 84.8763 443.813 91.6365 446.813C95.0166 448.348 107.762 448.418 111.635 446.883C115.861 445.278 120.367 441.789 121.635 439.068C123.325 435.649 123.184 430.835 121.283 428.393C120.367 427.067 120.015 425.881 120.297 425.113C120.579 424.416 124.311 422.183 128.747 420.02C138.324 415.484 141 413.182 141 409.414C141 406.344 139.31 404.46 136.564 404.46C133.184 404.46 131.353 405.855 130.437 408.995C129.31 413.042 127.62 414.438 118.325 419.113C113.959 421.276 109.875 423.788 109.1 424.834C107.199 427.346 107.34 430.974 109.382 432.579C110.931 433.835 111.776 433.835 115.438 432.719C117.48 432.091 118.255 433.765 117.058 436.487C114.875 441.789 104.734 444.65 99.5938 441.441C97.4108 440.115 95.2278 436.487 95.2278 434.184C95.2278 431.742 98.2558 425.602 100.228 424.136C101.354 423.229 103.748 422.252 105.579 422.043C110.931 421.276 111.635 417.857 106.706 416.322C103.326 415.205 102.974 414.717 102.974 410.181C102.974 403.832 105.861 400.553 111.495 400.692C115.79 400.832 116.494 401.878 114.945 405.297C113.466 408.646 113.889 410.67 116.424 411.996C119.593 413.6 123.607 411.577 124.311 408.018C126.001 399.855 115.72 393.156 105.086 395.459Z" fill="black"/>
<path d="M153.44 395.768C149.913 396.676 146.242 399.259 144.37 402.192C142.858 404.635 142.498 411.199 143.794 413.922C146.098 418.879 154.808 420.625 160.783 417.273C170.79 411.827 170.286 398.421 159.92 395.698C158.336 395.279 156.896 395 156.68 395C156.464 395.07 155.024 395.419 153.44 395.768ZM158.912 399.538C160.423 401.284 159.92 408.266 157.976 412.176C156.536 415.039 155.96 415.528 154.016 415.737C152.001 415.947 151.641 415.667 151.209 414.131C150.345 410.85 151.353 403.798 153.081 401.005C154.808 398.142 157.184 397.583 158.912 399.538Z" fill="black"/>
<path d="M224.749 395.948C212.821 398.905 203.962 406.793 200.474 417.637C198.521 423.623 198.521 428.201 200.404 433.412C202.915 440.313 206.124 443.905 212.193 446.792C217.634 449.327 223.354 449.679 229.353 447.848C235.282 446.017 237.305 444.609 237.305 442.426C237.305 439.609 235.073 439.468 229.632 441.933C226.493 443.341 219.587 443.271 216.239 441.862C209.193 438.905 205.217 432.919 205.217 425.313C205.217 416.652 211.495 407.638 220.424 403.483C223.563 402.004 225.516 401.652 229.632 401.581C238.63 401.581 244.141 405.595 246.792 414.328C248.396 419.257 247.21 425.665 244.141 428.764C241.909 430.947 240.793 431.229 238.63 430.102C237.026 429.187 236.956 426.863 238.421 419.187C238.979 416.088 239.537 413.13 239.607 412.567C239.677 412.004 238.491 411.229 236.607 410.666C233.817 409.821 233.399 409.821 232.631 410.877C231.864 411.933 231.655 411.933 230.05 410.807C227.888 409.398 223.214 409.328 220.703 410.666C215.96 413.201 212.89 418.764 212.89 424.82C212.89 429.327 214.355 432.426 217.355 434.257C220.494 436.229 223.981 436.158 227.121 433.975C228.516 432.989 229.911 432.215 230.12 432.215C230.399 432.215 231.515 433.06 232.631 434.116C234.375 435.877 235.073 436.088 239.398 436.017C243.722 436.017 244.56 435.806 246.861 433.834C248.326 432.708 250.28 430.172 251.256 428.271C252.791 425.313 253 423.905 253 418.13C253 412.497 252.721 410.877 251.326 407.99C248.047 401.3 242.258 397.145 234.026 395.595C229.353 394.75 229.632 394.75 224.749 395.948ZM228.655 413.06C230.26 414.116 231.097 416.792 230.678 419.398C229.004 429.75 227.958 432.215 225.377 432.215C222.517 432.215 221.261 429.891 221.331 424.82C221.401 419.961 222.307 416.863 224.54 414.328C226.144 412.426 227.26 412.145 228.655 413.06Z" fill="black"/>
<path d="M266.103 397.328C264.097 398.99 263.294 402.107 261.956 414.507C260.752 425.729 260.685 432.101 261.755 433.21C262.893 434.387 265.234 434.249 266.505 432.794C267.04 432.171 268.311 429.123 269.314 426.075C271.254 419.979 275 403.077 275 400.583C275 396.497 269.582 394.488 266.103 397.328Z" fill="black"/>
<path d="M185.896 398.054C183.493 400.374 181.655 402.413 167.944 417.531C162.289 423.719 154.09 432.719 149.708 437.43C145.326 442.212 141.863 446.501 142.004 446.923C142.146 447.415 143.206 447.837 144.337 447.977C146.528 448.188 148.083 446.993 153.101 441.368C155.151 439.118 167.661 425.336 170.417 422.383C170.771 421.961 173.881 418.656 177.203 415C191.268 399.671 193.318 397.28 192.964 396.718C192.116 395.311 187.875 396.085 185.896 398.054Z" fill="black"/>
<path d="M293.06 397.897C292.711 398.951 292.011 401.27 291.662 403.027C290.613 407.946 290.193 408.227 284.95 408.649C280.335 409 280.195 409.07 279.985 410.968C279.636 413.919 280.894 414.973 284.81 414.973C286.698 414.973 288.236 415.324 288.236 415.676C288.236 416.097 287.607 418.416 286.907 420.805C286.138 423.195 285.369 426.005 285.159 427.059C284.74 428.816 284.46 428.957 280.335 429.168L276 429.378V432.189V435L279.356 435.211L282.712 435.422L282.293 437.67C282.013 438.935 281.384 441.465 280.754 443.362C279.496 447.297 280.055 448.141 283.691 447.859C285.859 447.649 286.068 447.157 289.354 436.195C289.494 435.632 291.033 435.351 293.829 435.351C298.584 435.351 298.793 435.703 296.976 440.622C296.416 442.168 295.997 444.486 295.927 445.681C295.927 447.859 296.067 448 298.304 448C300.961 448 301.87 447.157 302.569 444.135C302.849 442.941 303.548 440.551 304.107 438.654L305.156 435.351H309.98C314.455 435.351 314.805 435.211 315.224 433.665C316.063 430.081 315.434 429.378 311.099 429.168C306.624 428.957 306.624 428.886 308.093 423.686C308.652 421.789 309.351 419.119 309.701 417.784C310.26 415.535 310.54 415.324 313.057 415.114C318.58 414.762 319 414.481 319 411.459V408.649H316.203C314.385 408.649 313.197 408.297 312.987 407.665C312.777 407.103 313.267 404.503 314.036 401.903C314.805 399.303 315.294 396.914 315.085 396.562C314.875 396.281 313.476 396 312.008 396H309.351L307.324 402.114L305.366 408.297L301.87 408.508C296.766 408.719 296.486 408.297 298.094 403.449C298.793 401.13 299.423 398.53 299.423 397.616C299.423 396.211 299.073 396 296.626 396C294.179 396 293.689 396.281 293.06 397.897ZM303.268 417.222C302.989 418.486 302.22 421.649 301.45 424.249L300.052 429.027H295.927C291.312 429.027 291.033 428.676 292.361 424.389C292.711 423.265 293.34 420.946 293.899 419.189C294.389 417.432 294.878 415.816 295.018 415.465C295.158 415.184 297.185 414.973 299.493 414.973H303.758L303.268 417.222Z" fill="black"/>
<path d="M347.048 413.744C346.57 414.242 346.228 416.449 346.228 419.083V423.498L341.648 423.711L337 423.925V427.485V431.045L341.648 431.258L346.228 431.472V435.957C346.228 441.226 346.98 442.294 350.808 441.938L353.405 441.724L353.747 436.74L354.089 431.757L357.506 431.543C363.727 431.258 364 431.045 364 427.485C364 423.925 363.727 423.711 357.506 423.426L354.089 423.213L353.747 418.229L353.405 413.245L350.671 413.032C349.099 412.889 347.527 413.245 347.048 413.744Z" fill="black"/>
<path d="M368.79 417.891C367.692 419.066 367.761 422.299 368.858 423.842C369.613 425.018 371.054 425.091 382.718 424.944L395.754 424.724L395.959 421.491C396.097 419.434 395.891 418.037 395.273 417.67C393.832 416.641 369.75 416.862 368.79 417.891Z" fill="black"/>
<path d="M176.096 425.289C165.46 428.093 162.204 443.26 171.32 447.644C177.326 450.52 184.271 448.723 188.757 443.188C190.783 440.672 191 439.881 191 435.64C191 430.609 189.842 428.093 186.731 426.152C185.14 425.146 178.7 424.642 176.096 425.289ZM181.956 429.027C184.705 431.759 182.969 441.966 179.279 444.841C177.615 446.135 177.181 446.207 175.879 445.344C172.84 443.332 173.78 433.196 177.326 429.387C179.351 427.23 180.075 427.158 181.956 429.027Z" fill="black"/>
<path d="M368.159 434.75C367.947 435.73 367.947 437.27 368.159 438.25L368.585 440L382.615 439.86L396.575 439.65L396.787 436.29L397 433H382.828H368.585L368.159 434.75Z" fill="black"/>
<path d="M53.7245 438.808C51.3823 441.268 51.4473 445.556 53.7895 447.524C54.7655 448.367 56.1318 449 56.8474 449C58.9294 449 62.3126 446.329 62.7681 444.361C63.4187 441.76 62.6379 438.597 61.2066 437.754C58.9294 436.418 55.4161 436.91 53.7245 438.808Z" fill="black"/>
<path d="M257.858 439.201C255.254 442.183 255.399 444.953 258.22 447.225C260.825 449.355 262.923 449.568 265.383 447.864C268.059 446.018 268.928 444.669 269 442.254C269 439.13 266.468 437 262.706 437C260.246 437 259.378 437.426 257.858 439.201Z" fill="black"/>
</svg>
